<svg width="87" height="87" viewBox="0 0 87 87" fill="none" xmlns="http://www.w3.org/2000/svg">
<rect width="87" height="87" rx="5" fill="#EFF1FF"/>
<path d="M24.8442 45.679C24.8828 45.6846 24.9301 45.6868 24.9832 45.6795L24.9583 45.498L24.9214 45.2288L24.9194 45.2141L24.9165 45.193L24.8657 45.2258L24.5002 45.4619C24.5051 45.4695 24.5128 45.4807 24.5233 45.4941C24.5277 45.4998 24.5376 45.5122 24.5517 45.5272C24.5573 45.5332 24.5733 45.55 24.5961 45.5689C24.5976 45.5702 24.5994 45.5717 24.6016 45.5734C24.614 45.5834 24.6366 45.6006 24.6668 45.618C24.6847 45.6282 24.7166 45.6451 24.759 45.6591C24.7776 45.6652 24.8068 45.6737 24.8442 45.679ZM24.8442 45.679L24.8097 45.7337C25.1112 45.9239 25.5789 46.1097 26.2209 46.2752C27.4988 46.6048 29.273 46.8064 31.2812 46.9095C34.8102 47.0907 38.9243 46.9618 42.0124 46.7624L42.4802 46.7322V46.2635V44.0036C42.4802 43.9713 42.4823 43.9396 42.4863 43.9088L42.5436 43.4692L42.1141 43.3597C40.1664 42.8629 38.7441 41.1412 38.7441 39.1101C38.7441 38.6697 38.8108 38.4131 38.8894 38.2655C38.9572 38.138 39.0445 38.0696 39.1771 38.0259C39.331 37.9753 39.5519 37.9579 39.8686 37.9805C40.1822 38.0028 40.5408 38.0597 40.961 38.1269L40.9745 38.129C41.6383 38.2351 42.4266 38.361 43.2657 38.361C44.1048 38.361 44.8931 38.2351 45.5569 38.129L45.5704 38.1269C45.9906 38.0597 46.3492 38.0028 46.6628 37.9805C46.9795 37.9579 47.2004 37.9753 47.3543 38.0259C47.4869 38.0696 47.5742 38.138 47.642 38.2655C47.7206 38.4131 47.7873 38.6697 47.7873 39.1101C47.7873 41.1411 46.3651 42.8627 44.4176 43.3596L43.9881 43.4692L44.0455 43.9087C44.0495 43.9396 44.0516 43.9712 44.0516 44.0036V46.1915V46.6811L44.5412 46.6914C45.3493 46.7082 46.2547 46.737 47.212 46.7674L47.2143 46.7675C47.671 46.782 48.1394 46.7968 48.614 46.811C50.6696 46.8721 52.8808 46.9204 54.9271 46.872C56.9846 46.8233 58.825 46.6775 60.1573 46.367C60.8262 46.2112 61.3117 46.0259 61.6238 45.8275C61.7446 45.7507 61.8319 45.6781 61.893 45.6075L61.9865 45.4995L61.9965 45.4359C61.9973 45.4339 61.998 45.4318 61.9988 45.4297C62.0032 45.4172 62.0248 45.3576 62.0273 45.2779C62.0273 45.2767 62.0273 45.2754 62.0274 45.274C62.1264 44.9255 62.4811 44.6756 62.8846 44.7247C63.3257 44.7785 63.6167 45.1637 63.5654 45.5634C63.4782 46.2436 63.0326 46.7387 62.4923 47.0822C61.9624 47.4191 61.2766 47.6558 60.5285 47.8302C59.0262 48.1803 57.0474 48.328 54.9658 48.3773C53.6998 48.4072 52.3761 48.4009 51.071 48.3776L50.5801 48.3689L50.5624 48.8595C50.4564 51.7977 49.8314 53.7311 48.606 54.9285C47.2367 56.2667 45.3055 56.5 43.265 56.5C41.1175 56.5 39.2268 55.9776 37.8959 54.5326C36.7444 53.2824 36.1145 51.4504 35.9791 48.9733L35.9531 48.4981L35.4772 48.5006C34.0258 48.5083 32.5696 48.4836 31.1972 48.4131C29.1548 48.3083 27.2507 48.1001 25.8127 47.7293C25.0971 47.5447 24.4473 47.3077 23.9458 46.9913C23.4439 46.6747 22.9975 46.2161 22.9037 45.5762C22.8452 45.1775 23.129 44.7878 23.5689 44.7265C23.9921 44.6676 24.3687 44.9408 24.4506 45.3164L24.4841 45.4696L24.599 45.5762C24.6492 45.6228 24.7171 45.6753 24.8097 45.7337L24.8442 45.679ZM61.9165 45.5761C61.9125 45.5809 61.9083 45.586 61.9037 45.5913C61.9007 45.5947 61.8964 45.5996 61.8908 45.6056C61.8791 45.618 61.8618 45.6351 61.8395 45.6529C61.8235 45.6657 61.7921 45.6893 61.748 45.711C61.7224 45.7236 61.6628 45.7507 61.5806 45.7595C61.5496 45.7628 61.5153 45.7636 61.4785 45.7599C61.322 45.7446 61.1896 45.6582 61.1099 45.5373C61.2062 45.4927 61.2878 45.4486 61.3556 45.4055M61.9165 45.5761L61.4922 45.6204L61.3556 45.4055M61.9165 45.5761L61.7238 45.4611L61.5198 45.3394L61.4794 45.3152M61.9165 45.5761L61.4794 45.3152M61.3556 45.4055C61.4137 45.3685 61.4531 45.3383 61.4794 45.3152M61.3556 45.4055L61.4794 45.3152M38.0379 48.4555L37.5225 48.4706L37.5535 48.9853C37.6878 51.2156 38.2541 52.6461 39.074 53.5364C39.9958 54.5372 41.3683 54.9943 43.265 54.9943C45.2666 54.9943 46.5999 54.7385 47.4841 53.8744C48.3004 53.0767 48.8871 51.6093 48.9909 48.8327L49.0097 48.3293L48.5062 48.3142C48.0324 48.3 47.5704 48.2854 47.1236 48.2712L47.1222 48.2711C46.1964 48.2418 45.3332 48.2144 44.5637 48.1979L44.053 48.1869V48.6977V51.3439C44.053 51.7476 43.7135 52.0967 43.2673 52.0967C42.821 52.0967 42.4815 51.7476 42.4815 51.3439V48.7745V48.242L41.9501 48.2755C40.7617 48.3503 39.4291 48.4147 38.0379 48.4555ZM25.5 30.5C27.7214 30.5 29.5 32.2515 29.5 34.385C29.5 36.5186 27.7214 38.2701 25.5 38.2701C23.2786 38.2701 21.5 36.5186 21.5 34.385C21.5 32.2515 23.2786 30.5 25.5 30.5ZM61.5 30.5C63.7214 30.5 65.5 32.2515 65.5 34.385C65.5 36.5186 63.7214 38.2701 61.5 38.2701C59.2786 38.2701 57.5 36.5186 57.5 34.385C57.5 32.2515 59.2786 30.5 61.5 30.5Z" fill="#ACB8FF" stroke="#ACB8FF"/>
</svg>
