<svg width="17" height="16" viewBox="0 0 17 16" fill="none" xmlns="http://www.w3.org/2000/svg">
<path d="M8.10943 13.2221H7.19365C4.85193 13.2221 3.6814 13.2221 2.95374 12.5075C2.22607 11.7929 2.22607 10.6426 2.22607 8.34252C2.22607 6.04248 2.22607 4.89215 2.95374 4.17752C3.6814 3.46289 4.85193 3.46289 7.19365 3.46289H9.67776C12.0195 3.46289 13.1907 3.46289 13.9183 4.17752C14.4781 4.72719 14.6068 5.535 14.6368 6.92585" stroke="#6D82FF" stroke-width="1.5" stroke-linecap="round" stroke-linejoin="round"/>
<path d="M13.9949 12.6066L15.2902 13.8514M11.371 3.46249L11.3057 3.26731C10.9823 2.29768 10.821 1.81286 10.4362 1.53583C10.0509 1.25879 9.54006 1.25879 8.5165 1.25879H8.34471C7.32245 1.25879 6.811 1.25879 6.42626 1.53583C6.04087 1.81286 5.87953 2.29768 5.5562 3.26731L5.49219 3.46249M14.6716 11.0344C14.6767 10.7397 14.621 10.4469 14.5075 10.1732C14.3941 9.89944 14.2252 9.65021 14.0108 9.44003C13.7964 9.22984 13.5407 9.06291 13.2587 8.94896C12.9766 8.83501 12.6739 8.77632 12.3681 8.77632C12.0623 8.77632 11.7595 8.83501 11.4775 8.94896C11.1955 9.06291 10.9398 9.22984 10.7254 9.44003C10.511 9.65021 10.3421 9.89944 10.2287 10.1732C10.1152 10.4469 10.0594 10.7397 10.0646 11.0344C10.0748 11.6168 10.3219 12.1721 10.7528 12.5805C11.1837 12.9889 11.7638 13.2177 12.3681 13.2177C12.9724 13.2177 13.5525 12.9889 13.9834 12.5805C14.4142 12.1721 14.6614 11.6168 14.6716 11.0344Z" stroke="#6D82FF" stroke-width="1.5" stroke-linecap="round" stroke-linejoin="round"/>
</svg>
