<svg width="60" height="60" viewBox="0 0 60 60" fill="none" xmlns="http://www.w3.org/2000/svg">
<g clip-path="url(#clip0_1976_5385)">
<path d="M45.0929 20.252H14.9069C8.80551 20.252 3.85938 25.1981 3.85938 31.2995V44.681C3.85938 50.7823 8.80551 55.7285 14.9069 55.7285H45.0929C51.1942 55.7285 56.1404 50.7823 56.1404 44.681V31.2995C56.1404 25.1981 51.1942 20.252 45.0929 20.252Z" fill="#30B5B5"/>
<path d="M38.1135 27.4692C42.5945 27.4692 46.227 23.8367 46.227 19.3557C46.227 14.8747 42.5945 11.2422 38.1135 11.2422C33.6325 11.2422 30 14.8747 30 19.3557C30 23.8367 33.6325 27.4692 38.1135 27.4692Z" fill="#BBE8E8"/>
<path d="M27.6284 23.5575C30.9181 23.5575 33.5849 20.8907 33.5849 17.601C33.5849 14.3113 30.9181 11.6445 27.6284 11.6445C24.3387 11.6445 21.6719 14.3113 21.6719 17.601C21.6719 20.8907 24.3387 23.5575 27.6284 23.5575Z" fill="#BBE8E8"/>
<path d="M14.9727 12.6945C17.299 12.6945 19.1847 10.8087 19.1847 8.48251C19.1847 6.15629 17.299 4.27051 14.9727 4.27051C12.6465 4.27051 10.7607 6.15629 10.7607 8.48251C10.7607 10.8087 12.6465 12.6945 14.9727 12.6945Z" fill="#BBE8E8"/>
<path d="M29.9999 46.9677C39.053 46.9677 46.3919 42.9483 46.3919 37.9902C46.3919 33.0321 39.053 29.0127 29.9999 29.0127C20.9469 29.0127 13.6079 33.0321 13.6079 37.9902C13.6079 42.9483 20.9469 46.9677 29.9999 46.9677Z" fill="#58C6C6"/>
</g>
<defs>
<clipPath id="clip0_1976_5385">
<rect width="60" height="60" fill="white"/>
</clipPath>
</defs>
</svg>
