<svg width="132" height="132" viewBox="0 0 132 132" fill="none" xmlns="http://www.w3.org/2000/svg">
<rect width="132" height="132" rx="66" fill="#EFF1FF"/>
<path d="M66 77.8982V83.5278" stroke="#ACB8FF" stroke-width="2" stroke-linecap="round" stroke-linejoin="round"/>
<circle cx="39.5" cy="58.6389" r="6.5" fill="#ACB8FF"/>
<circle cx="92.5" cy="58.6389" r="6.5" fill="#ACB8FF"/>
<path d="M73.037 65.9352C73.037 69.8217 69.8864 72.9723 65.9999 72.9723C62.1135 72.9723 58.9629 69.8217 58.9629 65.9352C58.9629 62.0488 62.1135 64.139 65.9999 64.139C69.8864 64.139 73.037 62.0488 73.037 65.9352Z" fill="#ACB8FF"/>
<path d="M66.0001 72.9724V77.8983M66.0001 77.8983C57.0865 78.602 39.1186 79.0243 38.5557 75.0835M66.0001 77.8983C73.7408 77.8983 94.9927 79.5872 95.5557 75.0835" stroke="#B6C0F7" stroke-width="2" stroke-linecap="round" stroke-linejoin="round"/>
<path d="M56.8521 78.6021C56.8521 87.0465 60.3348 89.8613 66.0002 89.8613C71.6656 89.8613 75.1483 88.4539 75.1483 78.6021" stroke="#ACB8FF" stroke-width="2" stroke-linecap="round" stroke-linejoin="round"/>
</svg>
