<svg width="80" height="38" viewBox="0 0 80 38" fill="none" xmlns="http://www.w3.org/2000/svg">
<path fill-rule="evenodd" clip-rule="evenodd" d="M15.8827 11.1228C15.3486 10.9822 14.8017 11.3013 14.6611 11.8354C14.5205 12.3695 14.8396 12.9164 15.3737 13.0569L19.9054 14.2495C19.8741 14.3525 19.8456 14.4641 19.8199 14.5851C19.265 17.1943 20.9304 19.7594 23.5397 20.3143C26.1489 20.8692 28.714 19.2038 29.2689 16.5945C29.2863 16.5127 29.3008 16.4342 29.3125 16.3589C29.4996 16.2279 29.643 16.0325 29.7056 15.7944C29.8462 15.2603 29.5272 14.7134 28.9931 14.5729L15.8827 11.1228ZM46.2977 18.6745C46.2977 21.311 44.4047 23.5053 41.9038 23.9726C41.9066 24.003 41.908 24.0337 41.908 24.0648V26.8472C42.8585 26.8632 43.9743 26.8974 45.1811 26.9345L45.1824 26.9345L45.1839 26.9346C45.7436 26.9517 46.3229 26.9695 46.9143 26.9864C49.278 27.0537 51.8609 27.1069 54.2664 27.0536C56.6851 27 58.8668 26.8393 60.4488 26.4966C61.2452 26.324 61.8195 26.1196 62.1831 25.9043C62.3604 25.7993 62.4568 25.7097 62.5056 25.6488C62.5484 25.5954 62.5523 25.5684 62.5536 25.5577C62.6221 25.0097 63.1219 24.621 63.6699 24.6895C64.2179 24.758 64.6067 25.2578 64.5382 25.8058C64.43 26.6709 63.8323 27.2522 63.2019 27.6253C62.5697 27.9996 61.7552 28.26 60.8723 28.4512C59.0957 28.8362 56.7566 28.9989 54.3108 29.0531C52.5433 29.0923 50.69 29.0751 48.9075 29.0373C48.8336 32.4979 48.1621 34.8041 46.7463 36.2239C45.2284 37.7461 43.0994 38 40.9075 38C38.5825 38 36.5031 37.4201 35.0325 35.7814C33.7045 34.3017 33.0188 32.1173 32.9146 29.1863C31.2357 29.2014 29.5396 29.1763 27.9464 29.0924C25.7511 28.9767 23.6955 28.7468 22.1376 28.3345C21.3629 28.1295 20.6483 27.8636 20.0907 27.5025C19.5365 27.1438 19.0085 26.6027 18.8971 25.8232C18.819 25.2764 19.1989 24.7699 19.7457 24.6918C20.2924 24.6137 20.7989 24.9936 20.877 25.5403L20.877 25.5404C20.8771 25.5411 20.8775 25.5438 20.8804 25.5504C20.8837 25.5578 20.8919 25.5737 20.9106 25.598C20.95 25.649 21.0295 25.7278 21.1776 25.8237C21.4817 26.0206 21.9665 26.2204 22.6493 26.4011C24.0064 26.7602 25.899 26.9817 28.0516 27.0952C31.9672 27.3014 36.5594 27.1421 39.908 26.9091V24.0648C39.908 24.0337 39.9094 24.003 39.9122 23.9727C37.4109 23.5057 35.5177 21.3112 35.5177 18.6745C35.5177 16.5556 36.7403 16.7561 38.5186 17.0476C39.2386 17.1657 40.0497 17.2987 40.9077 17.2987C41.7656 17.2987 42.5767 17.1657 43.2968 17.0476C45.075 16.7561 46.2977 16.5556 46.2977 18.6745ZM34.9145 29.1501C35.0139 31.8145 35.6329 33.4561 36.521 34.4456C37.469 35.5019 38.8931 36 40.9075 36C43.055 36 44.4294 35.7149 45.3301 34.8116C46.1931 33.9462 46.8381 32.2921 46.9081 28.987L46.8573 28.9856C46.2495 28.9683 45.66 28.9502 45.0949 28.9328L45.0928 28.9328L45.0919 28.9327L45.0893 28.9326L45.0892 28.9326C43.9044 28.8963 42.8266 28.8632 41.9098 28.8474V32.1496C41.9098 32.7018 41.4621 33.1496 40.9098 33.1496C40.3575 33.1496 39.9098 32.7018 39.9098 32.1496V28.9138C38.4264 29.0151 36.7093 29.102 34.9145 29.1501ZM66.9668 11.8354C66.8263 11.3013 66.2794 10.9822 65.7453 11.1228L52.6349 14.5729C52.1008 14.7134 51.7817 15.2603 51.9223 15.7944C51.985 16.0328 52.1286 16.2283 52.3159 16.3592C52.3277 16.4344 52.3421 16.5128 52.3595 16.5945C52.9144 19.2038 55.4795 20.8692 58.0887 20.3143C60.698 19.7594 62.3634 17.1943 61.8085 14.5851C61.7828 14.4641 61.7543 14.3524 61.723 14.2493L66.2542 13.0569C66.7883 12.9164 67.1074 12.3695 66.9668 11.8354Z" fill="#ACB8FF"/>
<path d="M74.0349 14C74.0349 10.1515 76.7024 7.03835 80 7.03835V6.96165C76.7024 6.96165 74.0349 3.84851 74.0349 0H73.9651C73.9651 3.84851 71.2976 6.96165 68 6.96165V7.03835C71.2976 7.03835 73.9651 10.1515 73.9651 14H74.0349Z" fill="#ACB8FF"/>
</svg>
