<svg width="125" height="91" viewBox="0 0 125 91" fill="none" xmlns="http://www.w3.org/2000/svg">
<path d="M110.579 44.7149C112.536 58.9785 107.53 70.2497 98.5691 77.9862C89.5756 85.751 76.5373 90 62.4269 90C48.3045 90 35.4801 85.9948 26.5984 78.3601C17.751 70.7548 12.7282 59.4772 14.2789 44.6832C16.8555 20.1011 35.5013 1 62.4269 1C89.3155 1 107.349 21.1711 110.579 44.7149Z" stroke="black" stroke-width="2"/>
<path d="M69.2753 44.9841C69.2753 48.5075 66.0106 50.5131 61.9833 50.5131C57.956 50.5131 54.6913 48.5075 54.6913 44.9841C54.6913 41.4608 57.4699 42.4323 61.4972 42.4323C65.5244 42.4323 69.2753 41.4608 69.2753 44.9841Z" fill="black"/>
<path d="M61.9833 50.5137V54.1597" stroke="black" stroke-width="2" stroke-linecap="round"/>
<path d="M51.4998 50.9688C50.7402 51.5764 49.9502 52.9741 52.867 53.7033C55.7838 54.4325 60.1593 54.6148 61.9824 54.6148" stroke="black" stroke-width="2" stroke-linecap="round"/>
<path d="M72.2176 50.9688C72.9772 51.5764 73.7671 52.9741 70.8503 53.7033C67.9335 54.4325 63.5581 54.6148 61.7349 54.6148" stroke="black" stroke-width="2" stroke-linecap="round"/>
<path d="M57.4261 54.6152C56.8185 56.7421 56.8792 60.9958 61.9836 60.9958C67.0881 60.9958 67.4524 56.7421 66.9966 54.6152M61.9836 54.6152V57.8055" stroke="black" stroke-width="2" stroke-linecap="round"/>
<circle cx="50.1337" cy="42.3097" r="2.73451" fill="black"/>
<circle cx="72.9213" cy="42.3097" r="2.73451" fill="black"/>
<path d="M17.701 28.7677C13.0808 26.7045 4.5 29.9997 1.83947 43.7974C1.18426 48.6183 2.23362 58.8454 14.2206 59.3749" stroke="black" stroke-width="2" stroke-linecap="round"/>
<path d="M105.649 28.6951C110.896 26.5728 121.33 31.0001 123.114 43.615C123.795 48.4334 124.055 58.8226 110.5 59.4999" stroke="black" stroke-width="2" stroke-linecap="round"/>
</svg>
