<svg width="48" height="48" viewBox="0 0 48 48" fill="none" xmlns="http://www.w3.org/2000/svg">
<path d="M47.7389 42.2636L36.9032 12.2537L12.123 37.0051L42.2428 47.7409C45.6646 48.9599 48.9674 45.6671 47.7389 42.2636Z" fill="#EF4452"/>
<path d="M5.73371 36.8659C5.73371 35.5379 4.65217 34.4613 3.31803 34.4613C1.98388 34.4613 0.902344 35.5379 0.902344 36.8659C0.902344 38.1939 1.98388 39.2705 3.31803 39.2705C4.65217 39.2705 5.73371 38.1939 5.73371 36.8659Z" fill="#EDCCF8"/>
<path d="M36.2447 11.1554C33.6539 8.57648 25.8921 12.1215 18.9081 19.0735C11.9241 26.0254 8.36276 33.7516 10.9535 36.3305C13.5443 38.9094 21.3062 35.3643 28.2901 28.4124C35.2741 21.4605 38.8355 13.7342 36.2447 11.1554Z" fill="#A41926"/>
<path d="M17.5595 28.2322C17.5595 28.3777 17.5388 28.527 17.4974 28.675C17.253 29.5298 16.3581 30.0241 15.4994 29.7808C12.8005 29.0136 9.95031 29.0548 7.25659 29.9005C6.40438 30.1683 5.49785 29.6971 5.22887 28.8501C4.95988 28.0031 5.4319 27.0994 6.28411 26.8317C9.58305 25.7954 13.0773 25.7452 16.3865 26.6862C17.0965 26.8883 17.5595 27.5307 17.5595 28.2322Z" fill="#B44BD7"/>
<path d="M22.2788 12.3919C22.2788 12.8901 22.0473 13.3818 21.6102 13.6959C20.8873 14.2172 19.8774 14.0563 19.3523 13.3367C16.8746 9.93323 15.4663 5.90282 15.2813 1.6806C15.2723 0.785958 15.9344 0.0419207 16.8254 0.00201511C17.7177 -0.036602 18.4716 0.652082 18.5117 1.539C18.6695 5.13046 19.8657 8.55586 21.971 11.4483C22.1792 11.7341 22.2788 12.0636 22.2788 12.3906V12.3919Z" fill="#EF4452"/>
<path d="M30.4377 5.94093C30.4377 6.1456 30.3976 6.35414 30.3136 6.55624C29.8635 7.63754 29.517 8.76518 29.2829 9.90827C28.5509 13.4778 28.9066 17.153 30.3136 20.5359C30.6537 21.361 30.2631 22.2994 29.4394 22.638C28.6143 22.9778 27.669 22.5878 27.3276 21.7678C25.6723 17.7889 25.2533 13.4637 26.1159 9.26464C26.3913 7.92074 26.7987 6.59486 27.3276 5.32433C27.669 4.50306 28.6143 4.11302 29.4394 4.45286C30.0614 4.70902 30.4377 5.31017 30.4377 5.94093Z" fill="#7896FF"/>
<path d="M22.4252 22.7047C22.4252 23.1875 22.208 23.6663 21.7929 23.983C21.0855 24.5236 20.0703 24.3911 19.5272 23.6856C16.5438 19.8148 12.2245 17.333 7.3647 16.6958C6.48016 16.58 5.85555 15.7703 5.97323 14.8911C6.08961 14.0093 6.90174 13.3888 7.78628 13.506C13.5022 14.2552 18.5819 17.1747 22.0916 21.7277C22.3166 22.0199 22.4252 22.3623 22.4252 22.7047Z" fill="#4A81EC"/>
<path d="M25.2274 29.9481L22.8 29.9475C22.2951 29.9474 21.8856 30.3547 21.8855 30.8574L21.8849 33.2735C21.8848 33.7762 22.294 34.1837 22.799 34.1839L25.2263 34.1845C25.7313 34.1846 26.1407 33.7772 26.1408 33.2746L26.1414 30.8584C26.1415 30.3558 25.7323 29.9482 25.2274 29.9481Z" fill="white"/>
<path d="M0.420713 19.7982L1.5389 22.005C1.77144 22.4639 2.33371 22.6483 2.79476 22.4168L5.01165 21.3038C5.4727 21.0723 5.65793 20.5126 5.42539 20.0536L4.3072 17.8469C4.07465 17.388 3.51239 17.2036 3.05134 17.4351L0.834446 18.5481C0.3734 18.7796 0.188165 19.3393 0.420713 19.7982Z" fill="#7896FF"/>
<path d="M37.727 2.13808L35.3608 1.38936C34.8687 1.23365 34.3429 1.50453 34.1865 1.99438L33.4343 4.34978C33.2779 4.83964 33.55 5.36297 34.0421 5.51868L36.4084 6.2674C36.9005 6.42311 37.4262 6.15223 37.5827 5.66238L38.3348 3.30697C38.4913 2.81712 38.2191 2.29379 37.727 2.13808Z" fill="#A8BFFF"/>
<path d="M13.3001 7.02978C13.3001 5.96053 12.4293 5.09374 11.3551 5.09374C10.2809 5.09374 9.41016 5.96053 9.41016 7.02978C9.41016 8.09902 10.2809 8.96582 11.3551 8.96582C12.4293 8.96582 13.3001 8.09902 13.3001 7.02978Z" fill="#FFC84D"/>
<path d="M21.7337 45.686C21.7337 44.6168 20.8629 43.75 19.7887 43.75C18.7145 43.75 17.8438 44.6168 17.8438 45.686C17.8438 46.7553 18.7145 47.6221 19.7887 47.6221C20.8629 47.6221 21.7337 46.7553 21.7337 45.686Z" fill="#A8BFFF"/>
<path d="M47.0977 18.5768C47.0977 17.3291 46.0816 16.3177 44.8281 16.3177C43.5747 16.3177 42.5586 17.3291 42.5586 18.5768C42.5586 19.8245 43.5747 20.8359 44.8281 20.8359C46.0816 20.8359 47.0977 19.8245 47.0977 18.5768Z" fill="#FFC84D"/>
</svg>
