<svg width="111" height="88" viewBox="0 0 111 88" fill="none" xmlns="http://www.w3.org/2000/svg">
<path d="M64.05 64.9342C64.05 68.7996 60.4683 71 56.05 71C51.6317 71 48.05 68.7996 48.05 64.9342C48.05 61.0688 51.0984 62.1347 55.5166 62.1347C59.9349 62.1347 64.05 61.0688 64.05 64.9342Z" fill="black"/>
<path d="M56.05 71V75" stroke="black" stroke-width="2" stroke-linecap="round"/>
<path d="M44.5486 71.5C43.7153 72.1667 42.8486 73.7 46.0486 74.5C49.2486 75.3 54.0489 75.5 56.049 75.5" stroke="black" stroke-width="2" stroke-linecap="round"/>
<path d="M67.2779 71.5C68.1112 72.1667 68.9779 73.7 65.7779 74.5C62.5779 75.3 57.7776 75.5 55.7775 75.5" stroke="black" stroke-width="2" stroke-linecap="round"/>
<path d="M51.0504 75.5C50.3837 77.8333 50.4504 82.5 56.0504 82.5C61.6504 82.5 62.0501 77.8333 61.55 75.5M56.0504 75.5V79" stroke="black" stroke-width="2" stroke-linecap="round"/>
<circle cx="43.05" cy="62" r="3" fill="black"/>
<circle cx="68.05" cy="62" r="3" fill="black"/>
<path d="M34.1378 15C15.0878 17.5 4.86224 47 1.5 86.5" stroke="black" stroke-width="2" stroke-linecap="round"/>
<path d="M77 15C96.05 17.5 106.276 47 109.638 86.5" stroke="black" stroke-width="2" stroke-linecap="round"/>
<path d="M55.2222 7.04831C52.2417 7.04831 51.1139 10.5697 51.2222 13.5483C51.2891 15.3869 51.7739 17.3841 52.8873 18.5479M55.2222 7.04831C48.3889 2.71498 34.6222 -3.55169 34.2222 6.04831C34.2222 17.5479 32.2222 24.5479 40.2222 24.5479C46.6222 24.5479 51.3322 20.5479 52.8873 18.5479M55.2222 7.04831C56.0166 7.04831 56.6794 7.29847 57.2222 7.72182M52.8873 18.5479C53.4781 19.1654 54.2459 19.5483 55.2222 19.5483C56.1985 19.5483 56.9663 19.1654 57.5572 18.5479M57.2222 7.72182C58.7161 8.88687 59.3016 11.3636 59.2222 13.5483C59.1553 15.3869 58.6705 17.3841 57.5572 18.5479M57.2222 7.72182C62.7222 3.66368 74.7222 -0.952148 76.2222 4.54785C77.7222 10.0479 77.2222 21.5479 75.2222 23.0479C73.2222 24.5479 62.5336 24.1479 57.5572 18.5479" stroke="black" stroke-width="2" stroke-linecap="round"/>
<path d="M24 67.5C24 67.5 23.6827 76.283 24 80C24.3103 83.6346 27.5 86.5 27.5 86.5" stroke="black" stroke-width="2" stroke-linecap="round"/>
<path d="M87.5 67.5C87.5 67.5 87.8173 76.283 87.5 80C87.1897 83.6346 84 86.5 84 86.5" stroke="black" stroke-width="2" stroke-linecap="round"/>
</svg>
