<svg width="16" height="16" viewBox="0 0 16 16" fill="none" xmlns="http://www.w3.org/2000/svg">
<path d="M5.17742 15.0434C5.53392 15.2789 5.99392 15.2789 6.35042 15.0434C7.48192 14.2959 9.94742 12.5099 11.0089 10.5109C12.4089 7.8739 10.7649 5.2439 8.59192 5.2439C7.35342 5.2439 6.60792 5.8909 6.19592 6.4474C5.97892 6.7409 5.54942 6.7409 5.33242 6.4474C4.92042 5.8909 4.17492 5.2439 2.93642 5.2439C0.763421 5.2439 -0.880579 7.8739 0.519421 10.5109C1.58092 12.5094 4.04642 14.2959 5.17792 15.0434H5.17742Z" fill="#EC4452"/>
<path d="M12.345 6.42052C12.55 6.55602 12.815 6.55602 13.02 6.42052C13.671 5.99052 15.0905 4.96202 15.7015 3.81202C16.5075 2.29452 15.561 0.780518 14.3105 0.780518C13.5975 0.780518 13.1685 1.15302 12.9315 1.47352C12.8065 1.64252 12.5595 1.64252 12.4345 1.47352C12.1975 1.15302 11.7685 0.780518 11.0555 0.780518C9.80498 0.780518 8.85848 2.29452 9.66448 3.81202C10.2755 4.96252 11.6945 5.99052 12.346 6.42052H12.345Z" fill="#EC4452"/>
</svg>
