<svg width="115" height="108" viewBox="0 0 115 108" fill="none" xmlns="http://www.w3.org/2000/svg">
<path d="M113.513 52.8027C115.776 69.6007 109.983 82.882 99.6203 91.9921C89.2264 101.129 74.171 106.12 57.8923 106.12C41.6014 106.12 26.7919 101.416 16.5259 92.4309C6.29195 83.4734 0.482564 70.186 2.27523 52.7716C5.2533 23.8417 26.8054 1.37891 57.8923 1.37891C88.943 1.37891 109.781 25.1029 113.513 52.8027Z" stroke="black" stroke-width="2"/>
<path d="M64.9112 53.0439C64.9112 56.3848 61.8155 58.2865 57.9968 58.2865C54.1781 58.2865 51.0824 56.3848 51.0824 53.0439C51.0824 49.703 53.7171 50.6242 57.5358 50.6242C61.3546 50.6242 64.9112 49.703 64.9112 53.0439Z" fill="black"/>
<path d="M57.9968 58.2861V61.7433" stroke="black" stroke-width="2" stroke-linecap="round"/>
<path d="M48.0562 58.7188C47.3359 59.295 46.5868 60.6202 49.3526 61.3117C52.1184 62.0031 56.2672 62.176 57.996 62.176" stroke="black" stroke-width="2" stroke-linecap="round"/>
<path d="M67.7011 58.7188C68.4214 59.295 69.1704 60.6202 66.4047 61.3117C63.6389 62.0031 59.49 62.176 57.7613 62.176" stroke="black" stroke-width="2" stroke-linecap="round"/>
<path d="M53.6756 62.1758C53.0994 64.1925 53.157 68.2259 57.9971 68.2259C62.8372 68.2259 63.1827 64.1925 62.7505 62.1758M57.9971 62.1758V65.2008" stroke="black" stroke-width="2" stroke-linecap="round"/>
<circle cx="46.7609" cy="50.5079" r="2.59291" fill="black"/>
<circle cx="68.3684" cy="50.5079" r="2.59291" fill="black"/>
</svg>
