<svg width="34" height="35" viewBox="0 0 34 35" fill="none" xmlns="http://www.w3.org/2000/svg">
<path fill-rule="evenodd" clip-rule="evenodd" d="M19.2069 8.34021C17.9736 7.15678 16.0264 7.15678 14.7931 8.34021L8.23897 14.6293C8.07839 14.7834 7.97037 14.9841 7.93023 15.203C7.14521 19.4839 7.08726 23.8666 7.75882 28.1668L7.91823 29.1875H12.1349V20.3881C12.1349 19.8013 12.6106 19.3256 13.1974 19.3256H20.8026C21.3894 19.3256 21.8651 19.8013 21.8651 20.3881V29.1875H26.0818L26.2412 28.1668C26.9128 23.8666 26.8548 19.4839 26.0698 15.203C26.0296 14.9841 25.9216 14.7834 25.761 14.6293L19.2069 8.34021ZM13.3218 6.80692C15.3773 4.83454 18.6227 4.83454 20.6782 6.80692L27.2323 13.096C27.7148 13.5589 28.0393 14.162 28.1599 14.8197C28.988 19.3355 29.0491 23.9586 28.3407 28.4947L28.0847 30.1344C27.9788 30.8126 27.3947 31.3125 26.7083 31.3125H20.8026C20.2158 31.3125 19.7401 30.8368 19.7401 30.25V21.4506H14.2599V30.25C14.2599 30.8368 13.7842 31.3125 13.1974 31.3125H7.29168C6.60533 31.3125 6.02125 30.8126 5.91535 30.1344L5.65927 28.4947C4.95087 23.9586 5.012 19.3355 5.84008 14.8197C5.96068 14.162 6.28522 13.5589 6.76769 13.096L13.3218 6.80692Z" fill="black"/>
</svg>
