<svg width="106" height="116" viewBox="0 0 106 116" fill="none" xmlns="http://www.w3.org/2000/svg">
<path d="M22.4201 1C30.7439 1 33.5963 3.5 37.9201 9C46.5963 6 62.244 6.0001 70.744 8C75 2.5 76.5678 0.999698 83.744 1C90.9201 1.0003 104.744 4.49969 104.744 44.4997C104.744 94.4997 90 115 54.4999 115C17 115 -0.756154 94.9997 2.24385 46.4997C4.64385 7.69969 14.0963 1 22.4201 1Z" stroke="black" stroke-width="2" stroke-linecap="round"/>
<path d="M60.9201 54.9342C60.9201 58.7996 57.3384 61 52.9201 61C48.5018 61 44.9201 58.7996 44.9201 54.9342C44.9201 51.0688 47.9685 52.1347 52.3868 52.1347C56.8051 52.1347 60.9201 51.0688 60.9201 54.9342Z" fill="black"/>
<path d="M52.9201 61V65" stroke="black" stroke-width="2" stroke-linecap="round"/>
<path d="M41.4188 61.5C40.5854 62.1667 39.7188 63.7 42.9188 64.5C46.1188 65.3 50.919 65.5 52.9191 65.5" stroke="black" stroke-width="2" stroke-linecap="round"/>
<path d="M64.148 61.5C64.9814 62.1667 65.848 63.7 62.648 64.5C59.448 65.3 54.6478 65.5 52.6476 65.5" stroke="black" stroke-width="2" stroke-linecap="round"/>
<path d="M47.9205 65.5C47.2538 67.8333 47.3205 72.5 52.9205 72.5C58.5205 72.5 58.9202 67.8333 58.4201 65.5M52.9205 65.5V69" stroke="black" stroke-width="2" stroke-linecap="round"/>
<circle cx="39.9201" cy="52" r="3" fill="black"/>
<circle cx="64.9201" cy="52" r="3" fill="black"/>
</svg>
