<svg width="41" height="22" viewBox="0 0 41 22" fill="none" xmlns="http://www.w3.org/2000/svg">
<path d="M18.648 11.136H4.128C2.304 11.136 1.944 10.296 1.944 9.528C1.944 8.568 2.304 7.872 4.128 7.872H5.16V4.488H4.248C2.424 4.488 2.064 3.648 2.064 2.88C2.064 1.92 2.424 1.224 4.248 1.224H18.528C20.352 1.224 20.712 1.92 20.712 2.88C20.712 3.648 20.352 4.488 18.528 4.488H17.616V7.872H18.648C20.472 7.872 20.832 8.568 20.832 9.528C20.832 10.296 20.472 11.136 18.648 11.136ZM7.392 21.552C6.312 21.552 5.448 21.048 5.448 19.44V16.392H3.048C1.296 16.392 0.864 15.6 0.864 14.76C0.864 13.776 1.296 13.08 3.048 13.08H19.728C21.48 13.08 21.912 13.776 21.912 14.76C21.912 15.6 21.48 16.392 19.728 16.392H17.352V19.44C17.352 21.096 16.44 21.552 15.408 21.552C14.328 21.552 13.464 21.048 13.464 19.44V16.392H9.336V19.44C9.336 21.096 8.424 21.552 7.392 21.552ZM9.048 7.872H13.728V4.488H9.048V7.872ZM30.1727 20.952H24.2447C22.4927 20.952 22.3007 20.232 22.3007 19.272V3.048C22.3007 2.064 22.4927 1.2 24.2447 1.2H29.6927C31.4447 1.2 31.8767 1.896 31.8767 2.88C31.8767 3.72 31.4447 4.512 29.6927 4.512H26.1887V9.432H29.6207C31.3727 9.432 31.8047 10.128 31.8047 11.112C31.8047 11.952 31.3727 12.744 29.6207 12.744H26.1887V17.64H30.1727C31.9247 17.64 32.3567 18.432 32.3567 19.272C32.3567 20.256 31.9247 20.952 30.1727 20.952ZM38.9327 21.552C37.8527 21.552 36.9887 21.048 36.9887 19.44V3.048C36.9887 1.44 37.9007 0.959999 38.9327 0.959999C39.9407 0.959999 40.8767 1.392 40.8767 3.048V19.44C40.8767 21.096 39.9647 21.552 38.9327 21.552Z" fill="#577BFE"/>
</svg>
