<svg width="45" height="23" viewBox="0 0 45 23" fill="none" xmlns="http://www.w3.org/2000/svg">
<path d="M20.202 11.564H4.472C2.496 11.564 2.106 10.654 2.106 9.822C2.106 8.782 2.496 8.028 4.472 8.028H5.59V4.362H4.602C2.626 4.362 2.236 3.452 2.236 2.62C2.236 1.58 2.626 0.825998 4.602 0.825998H20.072C22.048 0.825998 22.438 1.58 22.438 2.62C22.438 3.452 22.048 4.362 20.072 4.362H19.084V8.028H20.202C22.178 8.028 22.568 8.782 22.568 9.822C22.568 10.654 22.178 11.564 20.202 11.564ZM8.008 22.848C6.838 22.848 5.902 22.302 5.902 20.56V17.258H3.302C1.404 17.258 0.936 16.4 0.936 15.49C0.936 14.424 1.404 13.67 3.302 13.67H21.372C23.27 13.67 23.738 14.424 23.738 15.49C23.738 16.4 23.27 17.258 21.372 17.258H18.798V20.56C18.798 22.354 17.81 22.848 16.692 22.848C15.522 22.848 14.586 22.302 14.586 20.56V17.258H10.114V20.56C10.114 22.354 9.126 22.848 8.008 22.848ZM9.802 8.028H14.872V4.362H9.802V8.028ZM32.6871 22.198H26.2651C24.3671 22.198 24.1591 21.418 24.1591 20.378V2.802C24.1591 1.736 24.3671 0.799999 26.2651 0.799999H32.1671C34.0651 0.799999 34.5331 1.554 34.5331 2.62C34.5331 3.53 34.0651 4.388 32.1671 4.388H28.3711V9.718H32.0891C33.9871 9.718 34.4551 10.472 34.4551 11.538C34.4551 12.448 33.9871 13.306 32.0891 13.306H28.3711V18.61H32.6871C34.5851 18.61 35.0531 19.468 35.0531 20.378C35.0531 21.444 34.5851 22.198 32.6871 22.198ZM42.1771 22.848C41.0071 22.848 40.0711 22.302 40.0711 20.56V2.802C40.0711 1.06 41.0591 0.539999 42.1771 0.539999C43.2691 0.539999 44.2831 1.008 44.2831 2.802V20.56C44.2831 22.354 43.2951 22.848 42.1771 22.848Z" fill="#6D82FF"/>
</svg>
