<svg width="20" height="23" viewBox="0 0 20 23" fill="none" xmlns="http://www.w3.org/2000/svg">
<path fill-rule="evenodd" clip-rule="evenodd" d="M9.98014 0.120732C7.37185 0.107558 4.86375 1.12426 3.00085 2.9499C1.14446 4.80648 0.101562 7.32443 0.101562 9.94989C0.101562 12.5754 1.14446 15.0933 3.00085 16.9499L8.23335 22.1824C8.70217 22.6511 9.33794 22.9144 10.0008 22.9144C10.6638 22.9144 11.2995 22.6511 11.7683 22.1824L17.0008 16.9499C18.8265 15.087 19.8432 12.5789 19.83 9.9706C19.8168 7.36232 18.7749 4.86461 16.9305 3.02025C15.0861 1.17589 12.5884 0.133905 9.98014 0.120732ZM13.751 9.94995C13.751 12.021 12.072 13.7 10.001 13.7C7.92991 13.7 6.25098 12.021 6.25098 9.94995C6.25098 7.87888 7.92991 6.19995 10.001 6.19995C12.072 6.19995 13.751 7.87888 13.751 9.94995Z" fill="#6F82F1"/>
</svg>
