<svg width="20" height="20" viewBox="0 0 20 20" fill="none" xmlns="http://www.w3.org/2000/svg">
<path d="M8.16166 10.3841H13.5752C13.852 10.3841 14.1047 10.258 14.2277 10.0596L19.9231 0.84391C20.1627 0.455717 19.811 0.000976562 19.2706 0.000976562H13.8571C13.5803 0.000976562 13.3276 0.127066 13.2046 0.325541L7.50917 9.54118C7.26959 9.92938 7.62132 10.3841 8.16166 10.3841Z" fill="#D12030"/>
<path d="M11.838 10.3837H6.42444C6.14772 10.3837 5.89503 10.2576 5.77196 10.0592L0.0765566 0.842933C-0.163028 0.45474 0.188702 0 0.729041 0H6.14262C6.41935 0 6.67204 0.12609 6.79511 0.324564L12.4905 9.54021C12.7301 9.9284 12.3784 10.3837 11.838 10.3837Z" fill="#EF4452"/>
<path d="M10.9892 6.34356L12.9846 9.58512C13.1455 9.84605 13.4557 10.027 13.8147 10.0685L18.2773 10.588C19.1817 10.6937 19.5429 11.5845 18.8882 12.0958L15.6593 14.6188C15.3993 14.8219 15.2806 15.1144 15.3418 15.4016L16.1043 18.9642C16.2586 19.6863 15.3134 20.2374 14.5044 19.8965L10.513 18.2147C10.1918 18.0792 9.80807 18.0792 9.48693 18.2147L5.49556 19.8965C4.68651 20.2374 3.74055 19.6869 3.89566 18.9642L4.65811 15.4016C4.71928 15.115 4.60058 14.8219 4.3406 14.6188L1.11168 12.0958C0.457012 11.5845 0.818209 10.6931 1.72266 10.588L6.18518 10.0685C6.5442 10.0264 6.85515 9.84605 7.01535 9.58512L9.01068 6.34356C9.41557 5.68626 10.5851 5.68626 10.9892 6.34356Z" fill="#FFCD00"/>
</svg>
