<svg width="20" height="20" viewBox="0 0 20 20" fill="none" xmlns="http://www.w3.org/2000/svg">
<g clip-path="url(#clip0_1299_4586)">
<path d="M10 0.704102C11.1795 0.704102 11.157 1.1361 11.9515 1.1781C12.746 1.2206 13.1615 0.970602 13.698 1.0496C14.071 1.1046 14.3515 1.2711 14.5455 1.4346C14.7575 1.6136 14.7925 1.9251 14.6235 2.1451L12.7755 4.5461C12.611 4.7416 12.631 5.0311 12.824 5.1981C15.7 7.6896 19.25 10.6861 19.25 13.3766C19.25 17.8976 15.539 19.2966 10 19.2966C4.461 19.2966 0.75 17.8976 0.75 13.3766C0.75 10.6866 4.3 7.6896 7.176 5.1981C7.369 5.0311 7.389 4.7411 7.2245 4.5461L5.3765 2.1451C5.2075 1.9251 5.2425 1.6136 5.4545 1.4346C5.6485 1.2711 5.929 1.1046 6.302 1.0496C6.8385 0.970602 7.2545 1.2206 8.0485 1.1781C8.843 1.1356 8.8205 0.704102 10 0.704102Z" fill="#FFC522"/>
<path d="M10.0417 5.69254C9.07121 5.69254 8.09871 5.60154 7.14971 5.42054C6.84721 5.36254 6.64921 5.07054 6.70671 4.76804C6.76471 4.46554 7.05721 4.26604 7.35921 4.32454C9.11871 4.66004 10.9682 4.66154 12.7077 4.32454C13.0097 4.26404 13.3027 4.46354 13.3612 4.76604C13.4197 5.06854 13.2217 5.36104 12.9192 5.41954C11.9807 5.60104 11.0127 5.69204 10.0417 5.69204V5.69254Z" fill="#99452E"/>
<path d="M10.1198 15.9623C8.83581 15.9623 7.85831 15.2023 7.44931 14.6808C7.21081 14.3763 7.26431 13.9363 7.56881 13.6978C7.87181 13.4608 8.30881 13.5123 8.54831 13.8133C8.64531 13.9328 9.52331 14.9538 10.8998 14.4038C11.2343 14.2703 11.3868 14.0283 11.3643 13.8578C11.3303 13.5973 10.8963 13.2858 10.0043 13.1788C7.80432 12.9148 7.47281 11.6678 7.42331 11.2913C7.31231 10.4413 7.84831 9.62633 8.75731 9.26333C10.5963 8.53033 11.9383 9.51533 12.4298 9.97283C12.7128 10.2358 12.7283 10.6793 12.4648 10.9623C12.2008 11.2448 11.7588 11.2608 11.4753 10.9973C11.0258 10.5783 10.2788 10.1638 9.27581 10.5643C8.94131 10.6978 8.78881 10.9398 8.81131 11.1103C8.84531 11.3708 9.27881 11.6823 10.1708 11.7893C12.3708 12.0533 12.7023 13.3003 12.7518 13.6763C12.8633 14.5263 12.3268 15.3413 11.4183 15.7043C10.9603 15.8868 10.5243 15.9628 10.1193 15.9628L10.1198 15.9623Z" fill="#FFF3CC"/>
<path d="M10.0882 10.4019C9.70168 10.4019 9.38818 10.0889 9.38818 9.70238V8.70438C9.38818 8.31788 9.70168 8.00488 10.0882 8.00488C10.4747 8.00488 10.7882 8.31788 10.7882 8.70438V9.70238C10.7882 10.0889 10.4747 10.4019 10.0882 10.4019Z" fill="#FFF3CC"/>
<path d="M10.0882 16.9634C9.70168 16.9634 9.38818 16.6504 9.38818 16.2639V15.2659C9.38818 14.8794 9.70168 14.5664 10.0882 14.5664C10.4747 14.5664 10.7882 14.8794 10.7882 15.2659V16.2639C10.7882 16.6504 10.4747 16.9634 10.0882 16.9634Z" fill="#FFF3CC"/>
</g>
<defs>
<clipPath id="clip0_1299_4586">
<rect width="20" height="20" fill="white"/>
</clipPath>
</defs>
</svg>
