<svg width="34" height="35" viewBox="0 0 34 35" fill="none" xmlns="http://www.w3.org/2000/svg">
<path fill-rule="evenodd" clip-rule="evenodd" d="M10.9792 11.125C10.9792 7.79975 13.6748 5.10413 17 5.10413C20.3253 5.10413 23.0209 7.79975 23.0209 11.125C23.0209 14.4502 20.3253 17.1458 17 17.1458C13.6748 17.1458 10.9792 14.4502 10.9792 11.125ZM17 7.22913C14.8484 7.22913 13.1042 8.97335 13.1042 11.125C13.1042 13.2766 14.8484 15.0208 17 15.0208C19.1517 15.0208 20.8959 13.2766 20.8959 11.125C20.8959 8.97335 19.1517 7.22913 17 7.22913Z" fill="black"/>
<path fill-rule="evenodd" clip-rule="evenodd" d="M11.3334 21.3958C9.57297 21.3958 8.14587 22.8229 8.14587 24.5833V26.2667C8.14587 26.2923 8.16445 26.3142 8.18975 26.3183C14.0247 27.2709 19.9754 27.2709 25.8103 26.3183C25.8356 26.3142 25.8542 26.2923 25.8542 26.2667V24.5833C25.8542 22.8229 24.4271 21.3958 22.6667 21.3958H22.1838C22.1465 21.3958 22.1094 21.4017 22.0739 21.4133L20.8477 21.8137C18.3476 22.63 15.6525 22.63 13.1524 21.8137L11.9262 21.4133C11.8907 21.4017 11.8536 21.3958 11.8163 21.3958H11.3334ZM6.02087 24.5833C6.02087 21.6493 8.39936 19.2708 11.3334 19.2708H11.8163C12.0776 19.2708 12.3374 19.3121 12.5858 19.3933L13.812 19.7936C15.8835 20.4701 18.1166 20.4701 20.1881 19.7936L21.4143 19.3933C21.6627 19.3121 21.9224 19.2708 22.1838 19.2708H22.6667C25.6007 19.2708 27.9792 21.6493 27.9792 24.5833V26.2667C27.9792 27.3338 27.2059 28.2436 26.1527 28.4155C20.0911 29.4052 13.909 29.4052 7.84734 28.4155C6.79421 28.2436 6.02087 27.3338 6.02087 26.2667V24.5833Z" fill="black"/>
</svg>
