<svg width="105" height="105" viewBox="0 0 105 105" fill="none" xmlns="http://www.w3.org/2000/svg">
<path d="M10.8505 30.1134H37.9227V2M10.8505 30.1134L37.9227 2M10.8505 30.1134V47.0335M37.9227 2H67.5979M10.8505 63.9536V47.0335M10.8505 63.9536C15.5361 63.9536 24.3866 63.9536 24.3866 71.7629C24.3866 78.0103 30.2869 80.2663 33.2371 80.6134H73.8454C75.9278 80.6134 80.301 78.8433 81.134 71.7629C81.967 64.6825 88.0756 63.6065 91.0258 63.9536H103M10.8505 63.9536H2M94.6701 63.9536V47.0335M10.8505 47.0335L2 63.9536M2 63.9536V96.7526C2 96.7526 2.18924 100.083 3.56186 101.438C4.79806 102.659 7.7268 103 7.7268 103H97.7938C101.959 103 102.479 100.918 102.479 100.918C102.479 100.918 103 99.3557 103 96.7526V63.9536M103 63.9536L94.6701 47.0335M94.6701 47.0335V30.1134M94.6701 30.1134H67.5979V2M94.6701 30.1134L67.5979 2" stroke="#E0E0E0" stroke-width="4" stroke-linecap="round" stroke-linejoin="round"/>
<path d="M54.3191 54.9111V58.0357" stroke="#E0E0E0" stroke-width="2" stroke-linecap="round" stroke-linejoin="round"/>
<path d="M57.2234 48.2714C57.2234 49.8761 55.9225 51.177 54.3178 51.177C52.713 51.177 51.4121 49.8761 51.4121 48.2714C51.4121 48.124 51.4228 48.0258 51.4339 47.9637C51.4592 47.9627 51.49 47.9625 51.5272 47.9636C51.754 47.9701 52.0231 48.014 52.4108 48.0772C52.4826 48.0889 52.5585 48.1013 52.6389 48.1142C53.1149 48.1907 53.6944 48.2744 54.3178 48.2744C54.9411 48.2744 55.5206 48.1907 55.9966 48.1142C56.0771 48.1013 56.153 48.0889 56.2248 48.0772C56.6124 48.014 56.8815 47.9701 57.1083 47.9636C57.1455 47.9625 57.1764 47.9627 57.2016 47.9637C57.2127 48.0258 57.2234 48.124 57.2234 48.2714ZM51.3358 47.9746C51.3357 47.9746 51.3367 47.9742 51.3388 47.9737C51.3369 47.9744 51.3358 47.9746 51.3358 47.9746ZM57.2998 47.9746C57.2997 47.9746 57.2987 47.9744 57.2967 47.9737C57.2988 47.9742 57.2998 47.9746 57.2998 47.9746Z" fill="#E0E0E0" stroke="#E0E0E0" stroke-width="2"/>
<path d="M54.318 52.1768V54.9107M54.318 54.9107C49.3708 55.3013 39.3984 55.5356 39.0859 53.3485M54.318 54.9107C58.6142 54.9107 70.4093 55.8481 70.7218 53.3485" stroke="#E0E0E0" stroke-width="2" stroke-linecap="round" stroke-linejoin="round"/>
<path d="M49.24 55.3018C49.24 59.9886 51.173 61.5508 54.3174 61.5508C57.4617 61.5508 59.3947 60.7697 59.3947 55.3018" stroke="#E0E0E0" stroke-width="2" stroke-linecap="round" stroke-linejoin="round"/>
<path d="M41.88 44.36C41.8667 44.2933 41.86 44.21 41.86 44.11C41.86 44.0033 41.87 43.8933 41.89 43.78C41.91 43.66 41.9433 43.54 41.99 43.42C42.0433 43.3 42.1133 43.1833 42.2 43.07C42.4333 42.7833 42.7367 42.5267 43.11 42.3C43.2233 42.24 43.3133 42.17 43.38 42.09C43.4533 42.01 43.49 41.8967 43.49 41.75C43.49 41.6367 43.4633 41.5667 43.41 41.54C43.3633 41.5133 43.2933 41.5 43.2 41.5C43.0067 41.5 42.9 41.5933 42.88 41.78C42.86 41.8733 42.8167 41.9667 42.75 42.06C42.6833 42.1533 42.5933 42.24 42.48 42.32C42.3733 42.3933 42.2433 42.4567 42.09 42.51C41.9367 42.5567 41.7667 42.58 41.58 42.58C41.3467 42.58 41.1467 42.55 40.98 42.49C40.82 42.4233 40.6867 42.3367 40.58 42.23C40.48 42.1233 40.4067 42 40.36 41.86C40.3133 41.72 40.29 41.57 40.29 41.41C40.29 41.09 40.3567 40.8 40.49 40.54C40.63 40.2733 40.8267 40.0467 41.08 39.86C41.3333 39.6667 41.64 39.5167 42 39.41C42.36 39.3033 42.7667 39.25 43.22 39.25C43.7133 39.25 44.14 39.3033 44.5 39.41C44.86 39.5167 45.1567 39.6667 45.39 39.86C45.6233 40.0467 45.7933 40.2733 45.9 40.54C46.0133 40.8 46.07 41.09 46.07 41.41C46.07 42.2367 45.8267 42.86 45.34 43.28C45.2867 43.3267 45.2233 43.38 45.15 43.44C45.0767 43.4933 45.0033 43.55 44.93 43.61C44.8633 43.6633 44.8 43.7167 44.74 43.77C44.68 43.8167 44.6367 43.8567 44.61 43.89C44.59 43.91 44.5667 43.9433 44.54 43.99C44.52 44.03 44.4967 44.0733 44.47 44.12C44.4433 44.1667 44.42 44.2133 44.4 44.26C44.38 44.3 44.3667 44.3333 44.36 44.36C44.2667 44.6067 44.12 44.8033 43.92 44.95C43.72 45.09 43.4467 45.16 43.1 45.16C42.7533 45.16 42.4767 45.0867 42.27 44.94C42.0633 44.7867 41.9333 44.5933 41.88 44.36ZM41.79 46.99C41.79 46.57 41.91 46.2367 42.15 45.99C42.3967 45.7433 42.7167 45.62 43.11 45.62C43.5233 45.62 43.85 45.7433 44.09 45.99C44.33 46.2367 44.45 46.57 44.45 46.99C44.45 47.1633 44.4167 47.32 44.35 47.46C44.2833 47.6067 44.19 47.7333 44.07 47.84C43.95 47.9467 43.8067 48.03 43.64 48.09C43.48 48.15 43.3033 48.18 43.11 48.18C42.9167 48.18 42.74 48.15 42.58 48.09C42.42 48.03 42.28 47.9467 42.16 47.84C42.0467 47.7333 41.9567 47.6067 41.89 47.46C41.8233 47.32 41.79 47.1633 41.79 46.99Z" fill="#E0E0E0"/>
<path d="M63.88 44.36C63.8667 44.2933 63.86 44.21 63.86 44.11C63.86 44.0033 63.87 43.8933 63.89 43.78C63.91 43.66 63.9433 43.54 63.99 43.42C64.0433 43.3 64.1133 43.1833 64.2 43.07C64.4333 42.7833 64.7367 42.5267 65.11 42.3C65.2233 42.24 65.3133 42.17 65.38 42.09C65.4533 42.01 65.49 41.8967 65.49 41.75C65.49 41.6367 65.4633 41.5667 65.41 41.54C65.3633 41.5133 65.2933 41.5 65.2 41.5C65.0067 41.5 64.9 41.5933 64.88 41.78C64.86 41.8733 64.8167 41.9667 64.75 42.06C64.6833 42.1533 64.5933 42.24 64.48 42.32C64.3733 42.3933 64.2433 42.4567 64.09 42.51C63.9367 42.5567 63.7667 42.58 63.58 42.58C63.3467 42.58 63.1467 42.55 62.98 42.49C62.82 42.4233 62.6867 42.3367 62.58 42.23C62.48 42.1233 62.4067 42 62.36 41.86C62.3133 41.72 62.29 41.57 62.29 41.41C62.29 41.09 62.3567 40.8 62.49 40.54C62.63 40.2733 62.8267 40.0467 63.08 39.86C63.3333 39.6667 63.64 39.5167 64 39.41C64.36 39.3033 64.7667 39.25 65.22 39.25C65.7133 39.25 66.14 39.3033 66.5 39.41C66.86 39.5167 67.1567 39.6667 67.39 39.86C67.6233 40.0467 67.7933 40.2733 67.9 40.54C68.0133 40.8 68.07 41.09 68.07 41.41C68.07 42.2367 67.8267 42.86 67.34 43.28C67.2867 43.3267 67.2233 43.38 67.15 43.44C67.0767 43.4933 67.0033 43.55 66.93 43.61C66.8633 43.6633 66.8 43.7167 66.74 43.77C66.68 43.8167 66.6367 43.8567 66.61 43.89C66.59 43.91 66.5667 43.9433 66.54 43.99C66.52 44.03 66.4967 44.0733 66.47 44.12C66.4433 44.1667 66.42 44.2133 66.4 44.26C66.38 44.3 66.3667 44.3333 66.36 44.36C66.2667 44.6067 66.12 44.8033 65.92 44.95C65.72 45.09 65.4467 45.16 65.1 45.16C64.7533 45.16 64.4767 45.0867 64.27 44.94C64.0633 44.7867 63.9333 44.5933 63.88 44.36ZM63.79 46.99C63.79 46.57 63.91 46.2367 64.15 45.99C64.3967 45.7433 64.7167 45.62 65.11 45.62C65.5233 45.62 65.85 45.7433 66.09 45.99C66.33 46.2367 66.45 46.57 66.45 46.99C66.45 47.1633 66.4167 47.32 66.35 47.46C66.2833 47.6067 66.19 47.7333 66.07 47.84C65.95 47.9467 65.8067 48.03 65.64 48.09C65.48 48.15 65.3033 48.18 65.11 48.18C64.9167 48.18 64.74 48.15 64.58 48.09C64.42 48.03 64.28 47.9467 64.16 47.84C64.0467 47.7333 63.9567 47.6067 63.89 47.46C63.8233 47.32 63.79 47.1633 63.79 46.99Z" fill="#E0E0E0"/>
</svg>
