<svg width="105" height="105" viewBox="0 0 105 105" fill="none" xmlns="http://www.w3.org/2000/svg">
<path d="M10.8505 30.1134H37.9227V2M10.8505 30.1134L37.9227 2M10.8505 30.1134V47.0335M37.9227 2H67.5979M10.8505 63.9536V47.0335M10.8505 63.9536C15.5361 63.9536 24.3866 63.9536 24.3866 71.7629C24.3866 78.0103 30.2869 80.2663 33.2371 80.6134H73.8454C75.9278 80.6134 80.301 78.8433 81.134 71.7629C81.967 64.6825 88.0756 63.6065 91.0258 63.9536H103M10.8505 63.9536H2M94.6701 63.9536V47.0335M10.8505 47.0335L2 63.9536M2 63.9536V96.7526C2 96.7526 2.18924 100.083 3.56186 101.438C4.79806 102.659 7.7268 103 7.7268 103H97.7938C101.959 103 102.479 100.918 102.479 100.918C102.479 100.918 103 99.3557 103 96.7526V63.9536M103 63.9536L94.6701 47.0335M94.6701 47.0335V30.1134M94.6701 30.1134H67.5979V2M94.6701 30.1134L67.5979 2" stroke="#E0E0E0" stroke-width="4" stroke-linecap="round" stroke-linejoin="round"/>
<path d="M54.3193 54.9111V58.0357" stroke="#E0E0E0" stroke-width="2" stroke-linecap="round" stroke-linejoin="round"/>
<path d="M57.2234 48.2714C57.2234 49.8761 55.9225 51.177 54.3178 51.177C52.713 51.177 51.4121 49.8761 51.4121 48.2714C51.4121 48.124 51.4228 48.0258 51.4339 47.9637C51.4592 47.9627 51.49 47.9625 51.5272 47.9636C51.754 47.9701 52.0231 48.014 52.4108 48.0772C52.4826 48.0889 52.5585 48.1013 52.6389 48.1142C53.1149 48.1907 53.6944 48.2744 54.3178 48.2744C54.9411 48.2744 55.5206 48.1907 55.9966 48.1142C56.0771 48.1013 56.153 48.0889 56.2248 48.0772C56.6124 48.014 56.8815 47.9701 57.1083 47.9636C57.1455 47.9625 57.1764 47.9627 57.2016 47.9637C57.2127 48.0258 57.2234 48.124 57.2234 48.2714ZM51.3358 47.9746C51.3357 47.9746 51.3367 47.9742 51.3388 47.9737C51.3369 47.9744 51.3358 47.9746 51.3358 47.9746ZM57.2998 47.9746C57.2997 47.9746 57.2987 47.9744 57.2967 47.9737C57.2988 47.9742 57.2998 47.9746 57.2998 47.9746Z" fill="#E0E0E0" stroke="#E0E0E0" stroke-width="2"/>
<path d="M54.318 52.1768V54.9107M54.318 54.9107C49.3708 55.3013 39.3984 55.5356 39.0859 53.3485M54.318 54.9107C58.6142 54.9107 70.4093 55.8481 70.7218 53.3485" stroke="#E0E0E0" stroke-width="2" stroke-linecap="round" stroke-linejoin="round"/>
<path d="M49.2402 55.3018C49.2402 59.9886 51.1732 61.5508 54.3176 61.5508C57.462 61.5508 59.395 60.7697 59.395 55.3018" stroke="#E0E0E0" stroke-width="2" stroke-linecap="round" stroke-linejoin="round"/>
<path d="M38.2236 40.6143L43.9756 44.7769L38.2236 48.107" stroke="#E0E0E0" stroke-width="2" stroke-linecap="round" stroke-linejoin="round"/>
<path d="M69.8594 40.6143L64.1074 44.7769L69.8594 48.107" stroke="#E0E0E0" stroke-width="2" stroke-linecap="round" stroke-linejoin="round"/>
</svg>
