<svg width="105" height="105" viewBox="0 0 105 105" fill="none" xmlns="http://www.w3.org/2000/svg">
<path d="M10.8505 30.1134H37.9227V2M10.8505 30.1134L37.9227 2M10.8505 30.1134V47.0335M37.9227 2H67.5979M10.8505 63.9536V47.0335M10.8505 63.9536C15.5361 63.9536 24.3866 63.9536 24.3866 71.7629C24.3866 78.0103 30.2869 80.2663 33.2371 80.6134H73.8454C75.9278 80.6134 80.301 78.8433 81.134 71.7629C81.967 64.6825 88.0756 63.6065 91.0258 63.9536H103M10.8505 63.9536H2M94.6701 63.9536V47.0335M10.8505 47.0335L2 63.9536M2 63.9536V96.7526C2 96.7526 2.18924 100.083 3.56186 101.438C4.79806 102.659 7.7268 103 7.7268 103H97.7938C101.959 103 102.479 100.918 102.479 100.918C102.479 100.918 103 99.3557 103 96.7526V63.9536M103 63.9536L94.6701 47.0335M94.6701 47.0335V30.1134M94.6701 30.1134H67.5979V2M94.6701 30.1134L67.5979 2" stroke="#E0E0E0" stroke-width="4" stroke-linecap="round" stroke-linejoin="round"/>
<path d="M54.3193 54.9111V58.0357" stroke="#E0E0E0" stroke-width="2" stroke-linecap="round" stroke-linejoin="round"/>
<path d="M56.8113 48.2714C56.8113 49.8761 55.5104 51.177 53.9057 51.177C52.3009 51.177 51 49.8761 51 48.2714C51 48.124 51.0107 48.0258 51.0218 47.9637C51.047 47.9627 51.0779 47.9625 51.1151 47.9636C51.3419 47.9701 51.611 48.014 51.9987 48.0772C52.0705 48.0889 52.1464 48.1013 52.2268 48.1142C52.7028 48.1907 53.2823 48.2744 53.9057 48.2744C54.529 48.2744 55.1085 48.1907 55.5845 48.1142C55.665 48.1013 55.7408 48.0889 55.8127 48.0772C56.2003 48.014 56.4694 47.9701 56.6962 47.9636C56.7334 47.9625 56.7643 47.9627 56.7895 47.9637C56.8006 48.0258 56.8113 48.124 56.8113 48.2714ZM50.9237 47.9746C50.9236 47.9746 50.9246 47.9742 50.9267 47.9737C50.9248 47.9744 50.9237 47.9746 50.9237 47.9746ZM56.8877 47.9746C56.8876 47.9746 56.8866 47.9744 56.8846 47.9737C56.8867 47.9742 56.8877 47.9746 56.8877 47.9746Z" fill="#E0E0E0" stroke="#E0E0E0" stroke-width="2"/>
<path d="M54.318 52.1768V54.9107M54.318 54.9107C49.3708 55.3013 39.3984 55.5356 39.0859 53.3485M54.318 54.9107C58.6142 54.9107 70.4093 55.8481 70.7218 53.3485" stroke="#E0E0E0" stroke-width="2" stroke-linecap="round" stroke-linejoin="round"/>
<path d="M49.2402 55.3018C49.2402 59.9886 51.1732 61.5508 54.3176 61.5508C57.462 61.5508 59.395 60.7697 59.395 55.3018" stroke="#E0E0E0" stroke-width="2" stroke-linecap="round" stroke-linejoin="round"/>
<circle cx="3.5" cy="3.5" r="3.5" transform="matrix(1 0 0 -1 36 50)" fill="#E0E0E0"/>
<circle cx="3.5" cy="3.5" r="3.5" transform="matrix(1 0 0 -1 64.5879 50)" fill="#E0E0E0"/>
</svg>
