<svg width="142" height="134" viewBox="0 0 142 134" fill="none" xmlns="http://www.w3.org/2000/svg">
<path d="M52 67H81C85.9706 67 90 62.9706 90 58V47M52 67H46C40.9531 67 38.3177 70.3158 34.349 75.3089C33.2063 76.7466 31.9531 78.3233 30.5 80C25.3 86 21.6667 86.5 20.5 86C19 85.5 17.3 83.2 18.5 76C20.5 70.5 16.1667 67.3333 13.5 67H10C5.02944 67 1 62.9706 1 58V10C1 5.02944 5.02944 1 10 1H81C85.9706 1 90 5.02944 90 10V47M52 67V104C52 108.971 56.0294 113 61 113H96C101.047 113 103.682 116.316 107.651 121.309C108.794 122.747 110.047 124.323 111.5 126C116.7 132 120.333 132.5 121.5 132C123 131.5 124.7 129.2 123.5 122C121.5 116.5 125.833 113.333 128.5 113H132C136.971 113 141 108.971 141 104V56C141 51.0294 136.971 47 132 47H90" stroke="#E0E0E0" stroke-width="2"/>
<path d="M47.2817 39.8879V44.1999" stroke="#ACB8FF" stroke-width="2" stroke-linecap="round" stroke-linejoin="round"/>
<path d="M51.6696 30.7247C51.6696 33.1492 49.7041 35.1147 47.2796 35.1147C44.8551 35.1147 42.8896 33.1492 42.8896 30.7247C42.8896 30.1497 42.9985 29.9879 43.014 29.9677C43.0344 29.9557 43.1345 29.9113 43.4395 29.9201C43.7799 29.9299 44.181 29.9954 44.7144 30.0825C44.8126 30.0985 44.9153 30.1153 45.023 30.1326C45.6766 30.2376 46.4513 30.3489 47.2796 30.3489C48.1079 30.3489 48.8827 30.2376 49.5362 30.1326C49.6439 30.1153 49.7466 30.0985 49.8449 30.0825C50.3782 29.9954 50.7793 29.9299 51.1197 29.9201C51.4248 29.9113 51.5249 29.9557 51.5453 29.9677C51.5607 29.9879 51.6696 30.1497 51.6696 30.7247ZM43.0098 29.9707C43.0097 29.9706 43.0105 29.9699 43.0125 29.9686C43.0108 29.9701 43.0098 29.9707 43.0098 29.9707ZM51.5495 29.9707C51.5494 29.9707 51.5484 29.9701 51.5467 29.9686C51.5487 29.9699 51.5496 29.9706 51.5495 29.9707Z" fill="#ACB8FF" stroke="#ACB8FF" stroke-width="2"/>
<path d="M47.2797 36.115V39.888M47.2797 39.888C40.4524 40.427 26.69 40.7504 26.2588 37.732M47.2797 39.888C53.2087 39.888 69.4864 41.1816 69.9176 37.732" stroke="#ACB8FF" stroke-width="2" stroke-linecap="round" stroke-linejoin="round"/>
<path d="M40.2725 40.4263C40.2725 46.8942 42.94 49.0502 47.2794 49.0502C51.6188 49.0502 54.2864 47.9722 54.2864 40.4263" stroke="#ACB8FF" stroke-width="2" stroke-linecap="round" stroke-linejoin="round"/>
<path d="M35.6407 28.6448C36.1956 26.0355 33.8157 26.8303 31.2064 26.2754C28.5972 25.7205 26.7466 24.0261 26.1917 26.6354C25.6368 29.2446 27.3022 31.8097 29.9115 32.3646C32.5208 32.9195 35.0858 31.2541 35.6407 28.6448Z" fill="#ACB8FF"/>
<path d="M22 24.1401L35.1104 27.5902" stroke="#ACB8FF" stroke-width="2" stroke-linecap="round"/>
<path d="M58.7314 28.6448C58.1765 26.0355 60.5564 26.8303 63.1656 26.2754C65.7749 25.7205 67.6254 24.0261 68.1803 26.6354C68.7352 29.2446 67.0698 31.8097 64.4606 32.3646C61.8513 32.9195 59.2862 31.2541 58.7314 28.6448Z" fill="#ACB8FF"/>
<path d="M72.3716 24.1401L59.2612 27.5902" stroke="#ACB8FF" stroke-width="2" stroke-linecap="round"/>
<path d="M80.0349 26C80.0349 22.1515 82.7024 19.0384 86 19.0384V18.9616C82.7024 18.9616 80.0349 15.8485 80.0349 12H79.9651C79.9651 15.8485 77.2976 18.9616 74 18.9616V19.0384C77.2976 19.0384 79.9651 22.1515 79.9651 26H80.0349Z" fill="#AEAEAE"/>
<g clip-path="url(#clip0_3329_5915)">
<path d="M85.1667 77.6664H76.8333C76.6123 77.6664 76.4004 77.7542 76.2441 77.9105C76.0878 78.0668 76 78.2787 76 78.4998V98.4998C76 98.7208 76.0878 98.9327 76.2441 99.089C76.4004 99.2453 76.6123 99.3331 76.8333 99.3331H85.1667C85.3877 99.3331 85.5996 99.2453 85.7559 99.089C85.9122 98.9327 86 98.7208 86 98.4998V78.4998C86 78.2787 85.9122 78.0668 85.7559 77.9105C85.5996 77.7542 85.3877 77.6664 85.1667 77.6664ZM116 78.4998C116 76.2031 114.13 74.3331 111.833 74.3331H101.342C101.85 72.7848 102.667 69.9464 102.667 67.6664C102.667 64.0514 99.595 60.9998 97.6667 60.9998C95.935 60.9998 94.6983 61.9731 94.645 62.0148C94.5478 62.0934 94.4695 62.1926 94.4155 62.3054C94.3616 62.4181 94.3335 62.5415 94.3333 62.6664V68.3164L89.5333 78.7181L88.1283 79.4198C87.9899 79.4894 87.8735 79.596 87.792 79.7278C87.7105 79.8596 87.6671 80.0115 87.6667 80.1664V95.1664C87.6667 95.3881 87.755 95.5998 87.91 95.7564C89.1583 97.0031 91.9583 97.6664 93.5 97.6664H108.917C109.554 97.6653 110.181 97.5018 110.739 97.1911C111.296 96.8804 111.764 96.4329 112.1 95.8909C112.436 95.3488 112.629 94.73 112.659 94.0929C112.69 93.4559 112.558 92.8215 112.275 92.2498C113.158 91.8064 113.829 91.0313 114.141 90.0941C114.454 89.1569 114.382 88.1341 113.942 87.2498C114.56 86.9394 115.08 86.4634 115.443 85.8748C115.807 85.2862 115.999 84.6082 116 83.9164C116 82.9164 115.602 81.9814 114.917 81.2914C115.608 80.5381 116 79.5514 116 78.4998Z" fill="#E0E0E0"/>
</g>
<defs>
<clipPath id="clip0_3329_5915">
<rect width="40" height="40" fill="white" transform="translate(80 61)"/>
</clipPath>
</defs>
</svg>
