<svg width="135" height="146" viewBox="0 0 135 146" fill="none" xmlns="http://www.w3.org/2000/svg">
<g clip-path="url(#clip0_809_2081)">
<path d="M115.384 122.407V18.8161C115.384 15.48 112.884 12.7754 109.799 12.7754H25.2011C22.1164 12.7754 19.6155 15.48 19.6155 18.8161V122.407C19.6155 124.389 20.5132 126.247 22.0219 127.374L28.4074 132.156C30.321 133.587 32.8522 133.587 34.7625 132.156L40.3785 127.955C42.2921 126.524 44.8234 126.524 46.7336 127.955L52.3496 132.156C54.2632 133.587 56.7945 133.587 58.7047 132.156L64.3173 127.955C66.231 126.524 68.7622 126.524 70.6725 127.955L76.2885 132.156C78.2021 133.587 80.7334 133.587 82.6436 132.156L88.2596 127.955C90.1732 126.524 92.7045 126.524 94.6147 127.955L100.231 132.156C102.144 133.587 104.676 133.587 106.586 132.156L112.971 127.374C114.48 126.247 115.378 124.389 115.378 122.407H115.384Z" fill="#E5E8EB"/>
<path d="M102.495 99.9482H32.5046V103.598H102.495V99.9482Z" fill="#AFB7C0"/>
<path d="M102.495 86.709H93.2546V90.359H102.495V86.709Z" fill="#AFB7C0"/>
<path d="M102.495 73.4668H93.2546V77.1168H102.495V73.4668Z" fill="#AFB7C0"/>
<path d="M102.495 60.2246H93.2546V63.8746H102.495V60.2246Z" fill="#AFB7C0"/>
<path d="M68.7454 86.709H32.5046V90.359H68.7454V86.709Z" fill="#AFB7C0"/>
<path d="M68.7454 73.4668H32.5046V77.1168H68.7454V73.4668Z" fill="#AFB7C0"/>
<path d="M68.7454 60.2246H32.5046V63.8746H68.7454V60.2246Z" fill="#AFB7C0"/>
<path d="M102.495 33.7441H32.5046V37.3941H102.495V33.7441Z" fill="#AFB7C0"/>
<path d="M123.5 103.5H106.5C102.082 103.5 98.5 107.082 98.5 111.5V128.5C98.5 132.918 102.082 136.5 106.5 136.5H123.5C127.918 136.5 131.5 132.918 131.5 128.5V111.5C131.5 107.082 127.918 103.5 123.5 103.5Z" fill="#6D82FF"/>
<path d="M113.103 127.211C112.642 127.211 112.182 127.036 111.83 126.684L105.852 120.706C105.149 120.003 105.149 118.863 105.852 118.16C106.555 117.458 107.695 117.458 108.398 118.16L113.103 122.866L121.602 114.367C122.306 113.665 123.445 113.664 124.148 114.367C124.851 115.07 124.851 116.21 124.148 116.913L114.376 126.684C114.024 127.035 113.564 127.211 113.103 127.211Z" fill="#F9F9FB"/>
</g>
<defs>
<clipPath id="clip0_809_2081">
<rect width="135" height="146" fill="white"/>
</clipPath>
</defs>
</svg>
