<svg width="87" height="88" viewBox="0 0 87 88" fill="none" xmlns="http://www.w3.org/2000/svg">
<path d="M33.4952 87.3655H0.0410094C-0.051151 67.2754 0.0408198 33.2965 0.0408198 30.4212C0.0408198 27.5459 0.962424 25.9055 1.42323 25.4447C7.78229 19.2703 21.164 6.20248 23.8182 3.3272C26.4724 0.451919 28.9792 -0.0825875 29.9008 0.00956886H54.2311C61.5302 0.00956886 68.2395 2.22132 71.373 3.3272C83.5381 9.52011 86.7638 23.6016 86.8559 29.8682C87.1324 32.3565 87.6854 40.2635 81.0498 49.774C74.4143 59.2846 55.5214 59.6348 47.0426 58.8975C47.0426 62.8602 46.7663 66.2985 46.7663 76.0302C46.7663 85.7619 37.9189 87.6419 33.4952 87.3655Z" fill="#ACB8FF"/>
<path d="M15.0346 29.2036H0C0 28.1119 0 26.7473 1.11368 25.1097C2.22735 23.4721 25.2248 2.23804 25.893 1.36466C26.5612 0.491276 28.3988 0.0909771 29.234 0V18.2864C29.3268 19.742 28.7886 23.3629 25.893 26.2014C22.9974 29.0399 17.4476 29.3856 15.0346 29.2036Z" fill="#6D82FF"/>
</svg>
