<svg width="20" height="20" viewBox="0 0 20 20" fill="none" xmlns="http://www.w3.org/2000/svg">
<g clip-path="url(#clip0_1299_4567)">
<path d="M4.89352 19.7946C4.75902 19.7946 4.62252 19.7601 4.49752 19.6876C4.11752 19.4686 3.98702 18.9831 4.20702 18.6031L7.91602 12.1786C8.13502 11.7991 8.62002 11.6681 9.00052 11.8881C9.38052 12.1071 9.51102 12.5926 9.29102 12.9726L5.58202 19.3971C5.43502 19.6521 5.16852 19.7946 4.89352 19.7946Z" fill="#4B596A"/>
<path d="M17.4276 4.93554L10.8086 1.11404C10.2476 0.79004 9.54659 1.19504 9.54659 1.84254V3.02104C9.54659 4.52404 8.74509 5.91254 7.44359 6.66404L2.57309 9.47604C2.01209 9.80004 2.01209 10.6095 2.57309 10.933L13.0416 16.977C13.6026 17.301 14.3036 16.896 14.3036 16.2485V10.6245C14.3036 9.12154 15.1051 7.73304 16.4066 6.98154L17.4276 6.39204C17.9886 6.06804 17.9886 5.25854 17.4276 4.93504V4.93554Z" fill="#EF4452"/>
</g>
<defs>
<clipPath id="clip0_1299_4567">
<rect width="20" height="20" fill="white"/>
</clipPath>
</defs>
</svg>
