<svg width="20" height="20" viewBox="0 0 20 20" fill="none" xmlns="http://www.w3.org/2000/svg">
<g clip-path="url(#clip0_1299_4554)">
<path d="M17.0938 16.768V2.5775C17.0938 2.1205 16.7233 1.75 16.2663 1.75H3.73326C3.27626 1.75 2.90576 2.1205 2.90576 2.5775V16.768C2.90576 17.0395 3.03876 17.294 3.26226 17.4485L4.20826 18.1035C4.49176 18.2995 4.86676 18.2995 5.14976 18.1035L5.98176 17.528C6.26526 17.332 6.64026 17.332 6.92326 17.528L7.75526 18.1035C8.03876 18.2995 8.41376 18.2995 8.69676 18.1035L9.52826 17.528C9.81176 17.332 10.1868 17.332 10.4698 17.528L11.3018 18.1035C11.5853 18.2995 11.9603 18.2995 12.2433 18.1035L13.0753 17.528C13.3588 17.332 13.7338 17.332 14.0168 17.528L14.8488 18.1035C15.1323 18.2995 15.5073 18.2995 15.7903 18.1035L16.7363 17.4485C16.9598 17.294 17.0928 17.0395 17.0928 16.768H17.0938Z" fill="#E5E8EB"/>
<path d="M15.1844 13.6914H4.81543V14.1914H15.1844V13.6914Z" fill="#AFB7C0"/>
<path d="M15.1844 11.8779H13.8154V12.3779H15.1844V11.8779Z" fill="#AFB7C0"/>
<path d="M15.1844 10.064H13.8154V10.564H15.1844V10.064Z" fill="#AFB7C0"/>
<path d="M15.1844 8.25H13.8154V8.75H15.1844V8.25Z" fill="#AFB7C0"/>
<path d="M10.1844 11.8779H4.81543V12.3779H10.1844V11.8779Z" fill="#AFB7C0"/>
<path d="M10.1844 10.064H4.81543V10.564H10.1844V10.064Z" fill="#AFB7C0"/>
<path d="M10.1844 8.25H4.81543V8.75H10.1844V8.25Z" fill="#AFB7C0"/>
<path d="M15.1844 4.62256H4.81543V5.12256H15.1844V4.62256Z" fill="#AFB7C0"/>
</g>
<defs>
<clipPath id="clip0_1299_4554">
<rect width="20" height="20" fill="white"/>
</clipPath>
</defs>
</svg>
