<svg width="34" height="35" viewBox="0 0 34 35" fill="none" xmlns="http://www.w3.org/2000/svg">
<path d="M16.8298 21.9613C15.4794 20.117 14.2488 18.188 13.1453 16.1861C14.6671 13.2096 16.0019 9.6901 16.0019 6.50156C16.0019 6.23639 15.8966 5.98207 15.709 5.79456C15.5215 5.60705 15.2672 5.50171 15.002 5.50171C14.7369 5.50171 14.4826 5.60705 14.295 5.79456C14.1075 5.98207 14.0022 6.23639 14.0022 6.50156C13.86 9.08977 13.1807 11.6201 12.0075 13.9315C10.8311 11.6207 10.1484 9.09044 10.0028 6.50156C10.0028 6.23639 9.89743 5.98207 9.70993 5.79456C9.52242 5.60705 9.2681 5.50171 9.00292 5.50171C8.73774 5.50171 8.48343 5.60705 8.29592 5.79456C8.10841 5.98207 8.00307 6.23639 8.00307 6.50156C8.00307 9.6751 9.34487 13.2006 10.8706 16.1851C9.7711 18.1918 8.53679 20.1216 7.17619 21.9613C6.65188 22.2284 6.19323 22.6083 5.83318 23.0738C5.47312 23.5392 5.22059 24.0785 5.09373 24.6531C4.96686 25.2277 4.96881 25.8233 5.09942 26.397C5.23004 26.9708 5.48608 27.5085 5.84917 27.9716C6.21226 28.4346 6.67338 28.8115 7.19942 29.0752C7.72546 29.3389 8.30336 29.4829 8.89163 29.4967C9.4799 29.5106 10.0639 29.394 10.6018 29.1553C11.1397 28.9167 11.618 28.5619 12.0025 28.1164C12.3872 28.5607 12.8654 28.9144 13.4029 29.1521C13.9404 29.3899 14.5238 29.5058 15.1114 29.4915C15.6989 29.4772 16.276 29.3332 16.8014 29.0696C17.3267 28.8061 17.7872 28.4296 18.1499 27.9671C18.5126 27.5047 18.7685 26.9677 18.8992 26.3947C19.03 25.8217 19.0323 25.2269 18.9062 24.6529C18.78 24.0789 18.5284 23.5399 18.1694 23.0745C17.8105 22.6092 17.353 22.229 16.8298 21.9613ZM9.00292 27.4985C8.60742 27.4985 8.22079 27.3812 7.89194 27.1615C7.56309 26.9418 7.30679 26.6294 7.15543 26.264C7.00408 25.8986 6.96448 25.4966 7.04164 25.1087C7.1188 24.7208 7.30925 24.3644 7.58891 24.0848C7.86858 23.8051 8.22489 23.6147 8.6128 23.5375C9.0007 23.4603 9.40278 23.4999 9.76818 23.6513C10.1336 23.8027 10.4459 24.059 10.6656 24.3878C10.8853 24.7167 11.0026 25.1033 11.0026 25.4988C11.0026 26.0291 10.7919 26.5378 10.4169 26.9128C10.0419 27.2878 9.53328 27.4985 9.00292 27.4985ZM9.88579 21.6044C10.4707 20.7605 11.2226 19.6136 12.0075 18.2628C12.7914 19.6126 13.5413 20.7625 14.1242 21.6034C13.2991 21.793 12.556 22.2406 12.0025 22.8812C11.4499 22.2421 10.7088 21.7951 9.88579 21.6044ZM15.002 27.4985C14.6065 27.4985 14.2199 27.3812 13.8911 27.1615C13.5622 26.9418 13.3059 26.6294 13.1546 26.264C13.0032 25.8986 12.9636 25.4966 13.0408 25.1087C13.1179 24.7208 13.3084 24.3644 13.588 24.0848C13.8677 23.8051 14.224 23.6147 14.6119 23.5375C14.9998 23.4603 15.4019 23.4999 15.7673 23.6513C16.1327 23.8027 16.445 24.059 16.6647 24.3878C16.8845 24.7167 17.0018 25.1033 17.0018 25.4988C17.0018 26.0291 16.7911 26.5378 16.4161 26.9128C16.041 27.2878 15.5324 27.4985 15.002 27.4985ZM23.0009 11.5008V13.5005H28.0001C28.2653 13.5005 28.5196 13.6059 28.7072 13.7934C28.8947 13.9809 29 14.2352 29 14.5004C29 14.7656 28.8947 15.0199 28.7072 15.2074C28.5196 15.3949 28.2653 15.5002 28.0001 15.5002H23.0009V17.5H28.0001C28.2653 17.5 28.5196 17.6053 28.7072 17.7928C28.8947 17.9803 29 18.2346 29 18.4998C29 18.765 28.8947 19.0193 28.7072 19.2068C28.5196 19.3943 28.2653 19.4997 28.0001 19.4997H23.0009V21.4994H28.0001C28.2653 21.4994 28.5196 21.6047 28.7072 21.7922C28.8947 21.9797 29 22.234 29 22.4992C29 22.7644 28.8947 23.0187 28.7072 23.2062C28.5196 23.3937 28.2653 23.4991 28.0001 23.4991H23.0009V28.4983C23.0009 28.7635 22.8955 29.0178 22.708 29.2054C22.5205 29.3929 22.2662 29.4982 22.001 29.4982C21.7358 29.4982 21.4815 29.3929 21.294 29.2054C21.1065 29.0178 21.0012 28.7635 21.0012 28.4983V10.501C21.0028 9.17558 21.53 7.90492 22.4672 6.96771C23.4044 6.03051 24.675 5.5033 26.0004 5.50171L28.0001 5.50171C28.2653 5.50171 28.5196 5.60705 28.7072 5.79456C28.8947 5.98207 29 6.23639 29 6.50156C29 6.76674 28.8947 7.02106 28.7072 7.20857C28.5196 7.39608 28.2653 7.50142 28.0001 7.50142H26.0004C25.3823 7.50398 24.78 7.69747 24.276 8.05542C23.772 8.41337 23.3909 8.9183 23.1849 9.50112H28.0001C28.2653 9.50112 28.5196 9.60647 28.7072 9.79398C28.8947 9.98148 29 10.2358 29 10.501C29 10.7662 28.8947 11.0205 28.7072 11.208C28.5196 11.3955 28.2653 11.5008 28.0001 11.5008H23.0009Z" fill="black"/>
</svg>
