<svg width="34" height="35" viewBox="0 0 34 35" fill="none" xmlns="http://www.w3.org/2000/svg">
<path fill-rule="evenodd" clip-rule="evenodd" d="M9.91665 5.10413C10.5035 5.10413 10.9792 5.57982 10.9792 6.16663V8.5291C14.9851 8.17235 19.0149 8.17235 23.0208 8.52911V6.16663C23.0208 5.57982 23.4965 5.10413 24.0833 5.10413C24.6701 5.10413 25.1458 5.57982 25.1458 6.16663V8.73991C27.261 9.03898 28.932 10.712 29.2148 12.846L29.3374 13.771C29.8532 17.6616 29.8086 21.6061 29.2052 25.4841C28.9062 27.4052 27.3456 28.8807 25.4108 29.0715L23.7207 29.2382C19.251 29.6789 14.7489 29.6789 10.2792 29.2382L8.58912 29.0715C6.65432 28.8807 5.09364 27.4052 4.79471 25.4841C4.19127 21.6061 4.14673 17.6616 4.66244 13.771L4.78506 12.846C5.06793 10.7119 6.73896 9.03894 8.85415 8.7399V6.16663C8.85415 5.57982 9.32985 5.10413 9.91665 5.10413ZM10.5473 10.7039C14.8386 10.2807 19.1612 10.2807 23.4526 10.7039L24.7353 10.8304C25.9632 10.9515 26.9461 11.9021 27.1083 13.1252L27.2309 14.0502C27.2737 14.3734 27.3125 14.6969 27.3471 15.0208H6.65274C6.68742 14.6969 6.72618 14.3734 6.76902 14.0502L6.89163 13.1252C7.05377 11.9021 8.03668 10.9515 9.26458 10.8304L10.5473 10.7039ZM6.48383 17.1458C6.34474 19.8206 6.48177 22.5054 6.89444 25.1574C7.04438 26.1209 7.8272 26.861 8.79767 26.9567L10.4878 27.1234C14.8187 27.5505 19.1812 27.5505 23.5121 27.1234L25.2022 26.9567C26.1727 26.861 26.9555 26.1209 27.1054 25.1574C27.5181 22.5054 27.6551 19.8206 27.5161 17.1458H6.48383Z" fill="black"/>
</svg>
