<svg width="10" height="10" viewBox="0 0 10 10" fill="none" xmlns="http://www.w3.org/2000/svg">
<g clip-path="url(#clip0_1273_4324)">
<path d="M3.98786 2.83851L3.03369 3.56787L4.69388 5.73978L5.64805 5.01042L3.98786 2.83851Z" fill="#F1B80D"/>
<path d="M6.01228 2.8384L4.46875 4.85718L5.42283 5.58665L6.96636 3.56787L6.01228 2.8384Z" fill="#F1B80D"/>
<path d="M2.76639 3.83193C1.86964 3.83193 1.14014 3.10618 1.14014 2.21418C1.14014 1.32218 1.86964 0.59668 2.76639 0.59668C3.66314 0.59668 4.39264 1.32218 4.39264 2.21418C4.39264 3.10618 3.66314 3.83193 2.76639 3.83193ZM2.76639 1.31643C2.26639 1.31643 1.85989 1.71893 1.85989 2.21418C1.85989 2.70943 2.26639 3.11218 2.76639 3.11218C3.26639 3.11218 3.67289 2.70943 3.67289 2.21418C3.67289 1.71893 3.26639 1.31643 2.76639 1.31643Z" fill="#F1B80D"/>
<path d="M7.23367 3.83193C6.33692 3.83193 5.60742 3.10618 5.60742 2.21418C5.60742 1.32218 6.33692 0.59668 7.23367 0.59668C8.13042 0.59668 8.85992 1.32218 8.85992 2.21418C8.85992 3.10618 8.13042 3.83193 7.23367 3.83193ZM7.23367 1.31643C6.73367 1.31643 6.32717 1.71893 6.32717 2.21418C6.32717 2.70943 6.73367 3.11218 7.23367 3.11218C7.73367 3.11218 8.14017 2.70943 8.14017 2.21418C8.14017 1.71893 7.73367 1.31643 7.23367 1.31643Z" fill="#F1B80D"/>
<path d="M7.91624 7.80728L5.36474 4.45903C5.11699 4.13378 4.86399 4.12728 4.61074 4.45903L4.15674 5.05478L7.63474 9.54328L7.67899 9.51003C8.21799 9.10503 8.32424 8.34253 7.91624 7.80728Z" fill="#AFB7C0"/>
<path d="M5.81866 5.05502L5.36466 4.45927C5.11691 4.13402 4.86391 4.12752 4.61066 4.45927L2.05916 7.80752C1.65116 8.34277 1.75741 9.10502 2.29641 9.51027L2.34066 9.54352L5.81866 5.05502Z" fill="#D0D5DA"/>
</g>
<defs>
<clipPath id="clip0_1273_4324">
<rect width="10" height="10" fill="white"/>
</clipPath>
</defs>
</svg>
