<svg width="14" height="13" viewBox="0 0 14 13" fill="none" xmlns="http://www.w3.org/2000/svg">
<path d="M0.5 4C0.5 0.5 4 0.5 7 0.5C10 0.5 13.5 0.5 13.5 4C13.5 8 10 3.5 10 3.5H4C4 3.5 0.5 8 0.5 4ZM4.5 5C4.5 5 2 7.5 2 12H12C12 7.5 9.5 5 9.5 5H4.5Z" stroke="#909090" stroke-linecap="round" stroke-linejoin="round"/>
<path d="M7 10.5C8.10457 10.5 9 9.60457 9 8.5C9 7.39543 8.10457 6.5 7 6.5C5.89543 6.5 5 7.39543 5 8.5C5 9.60457 5.89543 10.5 7 10.5Z" stroke="#909090" stroke-linecap="round" stroke-linejoin="round"/>
</svg>
