<svg width="15" height="10" viewBox="0 0 15 10" fill="none" xmlns="http://www.w3.org/2000/svg">
<path d="M10.48 7C10.3474 7 10.2202 7.05268 10.1264 7.14645C10.0327 7.24021 9.97998 7.36739 9.97998 7.5C9.97998 7.63261 10.0327 7.75979 10.1264 7.85355C10.2202 7.94732 10.3474 8 10.48 8H12.48C12.6126 8 12.7398 7.94732 12.8335 7.85355C12.9273 7.75979 12.98 7.63261 12.98 7.5C12.98 7.36739 12.9273 7.24021 12.8335 7.14645C12.7398 7.05268 12.6126 7 12.48 7H10.48ZM0.97998 2.5C0.97998 1.83696 1.24337 1.20107 1.71221 0.732233C2.18105 0.263392 2.81694 0 3.47998 0H12.48C13.143 0 13.7789 0.263392 14.2477 0.732233C14.7166 1.20107 14.98 1.83696 14.98 2.5V7.5C14.98 8.16304 14.7166 8.79893 14.2477 9.26777C13.7789 9.73661 13.143 10 12.48 10H3.47998C2.81694 10 2.18105 9.73661 1.71221 9.26777C1.24337 8.79893 0.97998 8.16304 0.97998 7.5V2.5ZM13.98 3V2.5C13.98 2.10218 13.8219 1.72064 13.5406 1.43934C13.2593 1.15804 12.8778 1 12.48 1H3.47998C3.08216 1 2.70062 1.15804 2.41932 1.43934C2.13802 1.72064 1.97998 2.10218 1.97998 2.5V3H13.98ZM1.97998 4V7.5C1.97998 7.89782 2.13802 8.27936 2.41932 8.56066C2.70062 8.84196 3.08216 9 3.47998 9H12.48C12.8778 9 13.2593 8.84196 13.5406 8.56066C13.8219 8.27936 13.98 7.89782 13.98 7.5V4H1.97998Z" fill="#909090"/>
</svg>
