<svg width="28" height="36" viewBox="0 0 28 36" fill="none" xmlns="http://www.w3.org/2000/svg">
<path d="M5.14001 21.13L23.106 16.178V8.643L5.14001 13.595V21.13Z" fill="#EAEDF0"/>
<path d="M5.14001 4.954V13.595L23.106 8.643V4.954H5.14001Z" fill="#EF4452"/>
<path d="M1.16 0.5H26.595C27.071 0.5 27.458 0.887 27.458 1.363C27.458 3.956 25.353 6.06 22.761 6.06H4.994C2.402 6.06 0.296997 3.955 0.296997 1.363C0.296997 0.887 0.683997 0.5 1.16 0.5Z" fill="#AFB7C0"/>
<path d="M5.14001 27.702L23.106 22.749V15.214L5.14001 20.167V27.702Z" fill="#3036D1"/>
<path d="M5.14001 31.152H23.106V22.749L5.14001 27.702V31.152Z" fill="#EAEDF0"/>
<path d="M5.22699 29.94H23.018C25.604 29.94 27.703 32.039 27.703 34.625C27.703 35.108 27.311 35.5 26.828 35.5H1.41699C0.933992 35.5 0.541992 35.108 0.541992 34.625C0.541992 32.039 2.64099 29.94 5.22699 29.94Z" fill="#AFB7C0"/>
</svg>
