<svg width="14" height="15" viewBox="0 0 14 15" fill="none" xmlns="http://www.w3.org/2000/svg">
<path d="M2.74349 2.61363C3.8766 1.57241 5.40217 0.992559 6.98867 1.00007C8.57517 1.00759 10.0944 1.60186 11.2163 2.65376C12.3381 3.70566 12.9719 5.13018 12.9799 6.61777C12.9879 8.10536 12.3695 9.53581 11.2591 10.5983L8.07636 13.5825C7.7912 13.8498 7.40449 14 7.00127 14C6.59805 14 6.21134 13.8498 5.92618 13.5825L2.74349 10.5983C1.61433 9.53941 0.97998 8.10334 0.97998 6.60595C0.97998 5.10857 1.61433 3.6725 2.74349 2.61363Z" stroke="#909090" stroke-linejoin="round"/>
<path d="M7.00117 8.74526C8.26091 8.74526 9.28213 7.78771 9.28213 6.60652C9.28213 5.42532 8.26091 4.46777 7.00117 4.46777C5.74143 4.46777 4.72021 5.42532 4.72021 6.60652C4.72021 7.78771 5.74143 8.74526 7.00117 8.74526Z" stroke="#909090" stroke-linecap="round" stroke-linejoin="round"/>
</svg>
