<svg width="13" height="14" viewBox="0 0 13 14" fill="none" xmlns="http://www.w3.org/2000/svg">
<path d="M6.49475 1.58301C3.50475 1.58301 1.0835 4.00967 1.0835 6.99967C1.0835 9.98967 3.50475 12.4163 6.49475 12.4163C9.49016 12.4163 11.9168 9.98967 11.9168 6.99967C11.9168 4.00967 9.49016 1.58301 6.49475 1.58301ZM6.50016 11.333C4.106 11.333 2.16683 9.39384 2.16683 6.99967C2.16683 4.60551 4.106 2.66634 6.50016 2.66634C8.89433 2.66634 10.8335 4.60551 10.8335 6.99967C10.8335 9.39384 8.89433 11.333 6.50016 11.333ZM6.771 4.29134H5.9585V7.54134L8.80225 9.24759L9.2085 8.58134L6.771 7.13509V4.29134Z" fill="#909090"/>
</svg>
