<svg width="13" height="13" viewBox="0 0 13 13" fill="none" xmlns="http://www.w3.org/2000/svg">
<path fill-rule="evenodd" clip-rule="evenodd" d="M8.09929 1.50716C7.47378 0.915104 6.48618 0.915104 5.86067 1.50716L2.53654 4.65352C2.4551 4.73061 2.40032 4.83103 2.37996 4.94054C1.98181 7.08227 1.95242 9.27487 2.29302 11.4262L2.37387 11.9369H4.51248V7.53463C4.51248 7.24106 4.75374 7.00307 5.05136 7.00307H8.90861C9.20622 7.00307 9.44748 7.24106 9.44748 7.53463V11.9369H11.5861L11.6669 11.4262C12.0075 9.27487 11.9782 7.08227 11.58 4.94054C11.5596 4.83103 11.5049 4.73061 11.4234 4.65352L8.09929 1.50716ZM5.11447 0.740072C6.15698 -0.24669 7.80298 -0.24669 8.84549 0.740072L12.1696 3.88643C12.4143 4.11804 12.5789 4.41975 12.6401 4.74879C13.0601 7.00801 13.0911 9.32089 12.7318 11.5903L12.6019 12.4106C12.5482 12.7499 12.252 13 11.9039 13H8.90861C8.61099 13 8.36972 12.762 8.36972 12.4684V8.06619H5.59024V12.4684C5.59024 12.762 5.34897 13 5.05136 13H2.0561C1.70799 13 1.41176 12.7499 1.35805 12.4106L1.22817 11.5903C0.868881 9.32089 0.899883 7.00801 1.31987 4.74879C1.38104 4.41975 1.54564 4.11804 1.79034 3.88643L5.11447 0.740072Z" fill="#909090"/>
</svg>
