<svg width="34" height="35" viewBox="0 0 34 35" fill="none" xmlns="http://www.w3.org/2000/svg">
<path fill-rule="evenodd" clip-rule="evenodd" d="M22.171 6.53911L23.3233 6.68262C25.9828 7.01385 27.9792 9.27426 27.9792 11.9544V26.8144C27.9792 29.4167 26.0408 31.6114 23.4585 31.933C19.1694 32.4672 14.8306 32.4672 10.5416 31.933C7.95924 31.6114 6.02087 29.4167 6.02087 26.8144V11.9544C6.02087 9.27425 8.01723 7.01385 10.6768 6.68262L11.8291 6.53911C12.2855 4.89458 13.7935 3.6875 15.5834 3.6875H18.4167C20.2066 3.6875 21.7146 4.89458 22.171 6.53911ZM11.6875 8.69815L10.9394 8.79132C9.34369 8.99006 8.14587 10.3463 8.14587 11.9544V26.8144C8.14587 28.3446 9.2857 29.6352 10.8042 29.8243C14.9189 30.3368 19.0812 30.3368 23.1959 29.8243C24.7144 29.6352 25.8542 28.3446 25.8542 26.8144V11.9544C25.8542 10.3463 24.6564 8.99006 23.0606 8.79132L22.3125 8.69815V10.4167C22.3125 11.0035 21.8368 11.4792 21.25 11.4792H12.75C12.1632 11.4792 11.6875 11.0035 11.6875 10.4167V8.69815ZM13.8125 7.58333C13.8125 6.60533 14.6054 5.8125 15.5834 5.8125H18.4167C19.3947 5.8125 20.1875 6.60533 20.1875 7.58333V9.35417H13.8125V7.58333Z" fill="black"/>
<path d="M22.3125 17.1458C22.3125 16.559 21.8368 16.0833 21.25 16.0833H12.75C12.1632 16.0833 11.6875 16.559 11.6875 17.1458C11.6875 17.7326 12.1632 18.2083 12.75 18.2083H21.25C21.8368 18.2083 22.3125 17.7326 22.3125 17.1458Z" fill="black"/>
<path d="M20.8959 21.3958C20.8959 20.809 20.4202 20.3333 19.8334 20.3333H12.75C12.1632 20.3333 11.6875 20.809 11.6875 21.3958C11.6875 21.9826 12.1632 22.4583 12.75 22.4583H19.8334C20.4202 22.4583 20.8959 21.9826 20.8959 21.3958Z" fill="black"/>
</svg>
