<svg width="20" height="20" viewBox="0 0 20 20" fill="none" xmlns="http://www.w3.org/2000/svg">
<g clip-path="url(#clip0_1299_4574)">
<path d="M17.051 12.51C17.65 11.401 17.182 10.0095 16.0905 9.37946L14.8065 8.63796C15.013 8.14496 15.1315 7.61396 15.1315 7.05696C15.1315 6.57296 15.0445 6.10696 14.8865 5.66896C15.268 5.15146 15.453 4.48096 15.293 3.75596C15.0975 2.87046 14.3795 2.15646 13.4915 1.97396C12.624 1.79546 11.825 2.09896 11.293 2.65896C10.8795 2.56346 10.448 2.50796 10.0005 2.50796C9.55305 2.50796 9.12155 2.56396 8.70805 2.65896C8.17605 2.09896 7.37705 1.79546 6.50955 1.97396C5.62155 2.15646 4.90355 2.87046 4.70805 3.75596C4.54805 4.48046 4.73305 5.15146 5.11455 5.66896C4.95655 6.10696 4.86955 6.57246 4.86955 7.05696C4.86955 7.61396 4.98805 8.14496 5.19455 8.63796L3.91355 9.37746C2.81005 10.0145 2.34455 11.428 2.96605 12.5395C3.16555 12.8965 3.65405 13.216 4.03655 13.425C4.23805 13.535 4.26555 13.8155 4.08255 13.954C3.46355 14.4225 3.09605 15.176 3.17955 15.9655C3.35405 17.6215 5.01255 18.4895 6.39705 17.883L8.47855 16.9705C9.47455 16.534 10.6075 16.534 11.6035 16.9705L13.5945 17.843C14.693 18.3245 16.026 17.9515 16.6095 16.9035C17.19 15.8615 16.876 14.6055 15.9805 13.9385C15.801 13.805 15.826 13.5295 16.019 13.416C16.387 13.199 16.8595 12.868 17.053 12.5095L17.051 12.51Z" fill="#EC6700"/>
<path d="M12.0896 7.86996C12.0896 6.49596 11.1541 5.84546 10.0001 5.84546C8.84614 5.84546 7.91064 6.49596 7.91064 7.86996C7.91064 9.24396 8.84614 9.08196 10.0001 9.08196C11.1541 9.08196 12.0896 9.24396 12.0896 7.86996Z" fill="white"/>
<path d="M11.0138 7.30107C11.0138 6.74107 10.5598 6.66357 10.0003 6.66357C9.44082 6.66357 8.98682 6.74107 8.98682 7.30107C8.98682 7.86107 9.44082 8.31457 10.0003 8.31457C10.5598 8.31457 11.0138 7.86057 11.0138 7.30107Z" fill="#573515"/>
<path d="M8.57393 5.73355C8.85477 5.73355 9.08243 5.50589 9.08243 5.22505C9.08243 4.94422 8.85477 4.71655 8.57393 4.71655C8.29309 4.71655 8.06543 4.94422 8.06543 5.22505C8.06543 5.50589 8.29309 5.73355 8.57393 5.73355Z" fill="#573515"/>
<path d="M11.426 5.73355C11.7068 5.73355 11.9345 5.50589 11.9345 5.22505C11.9345 4.94422 11.7068 4.71655 11.426 4.71655C11.1451 4.71655 10.9175 4.94422 10.9175 5.22505C10.9175 5.50589 11.1451 5.73355 11.426 5.73355Z" fill="#573515"/>
<path d="M10.4609 10.5859H9.53938C8.63446 10.5859 7.90088 11.3195 7.90088 12.2244V13.4209C7.90088 14.3259 8.63446 15.0594 9.53938 15.0594H10.4609C11.3658 15.0594 12.0994 14.3259 12.0994 13.4209V12.2244C12.0994 11.3195 11.3658 10.5859 10.4609 10.5859Z" fill="#F77F00"/>
</g>
<defs>
<clipPath id="clip0_1299_4574">
<rect width="20" height="20" fill="white"/>
</clipPath>
</defs>
</svg>
