<svg width="12" height="12" viewBox="0 0 12 12" fill="none" xmlns="http://www.w3.org/2000/svg">
<path d="M6 1C5.01109 1 4.0444 1.29324 3.22215 1.84265C2.3999 2.39206 1.75904 3.17295 1.3806 4.08658C1.00217 5.00021 0.90315 6.00555 1.09608 6.97545C1.289 7.94536 1.76521 8.83627 2.46447 9.53553C3.16373 10.2348 4.05464 10.711 5.02455 10.9039C5.99445 11.0969 6.99979 10.9978 7.91342 10.6194C8.82705 10.241 9.60794 9.6001 10.1573 8.77785C10.7068 7.9556 11 6.98891 11 6C11 5.34339 10.8707 4.69321 10.6194 4.08658C10.3681 3.47995 9.99983 2.92876 9.53553 2.46447C9.07124 2.00017 8.52004 1.63188 7.91342 1.3806C7.30679 1.12933 6.65661 1 6 1ZM6 9C5.90111 9 5.80444 8.97067 5.72222 8.91573C5.63999 8.86079 5.5759 8.7827 5.53806 8.69134C5.50022 8.59998 5.49032 8.49944 5.50961 8.40245C5.5289 8.30546 5.57652 8.21637 5.64645 8.14644C5.71637 8.07652 5.80547 8.0289 5.90246 8.00961C5.99945 7.99031 6.09998 8.00022 6.19134 8.03806C6.28271 8.0759 6.36079 8.13999 6.41574 8.22221C6.47068 8.30444 6.5 8.40111 6.5 8.5C6.5 8.63261 6.44732 8.75978 6.35355 8.85355C6.25979 8.94732 6.13261 9 6 9ZM6.5 6.5C6.5 6.63261 6.44732 6.75978 6.35355 6.85355C6.25979 6.94732 6.13261 7 6 7C5.86739 7 5.74022 6.94732 5.64645 6.85355C5.55268 6.75978 5.5 6.63261 5.5 6.5V3.5C5.5 3.36739 5.55268 3.24021 5.64645 3.14645C5.74022 3.05268 5.86739 3 6 3C6.13261 3 6.25979 3.05268 6.35355 3.14645C6.44732 3.24021 6.5 3.36739 6.5 3.5V6.5Z" fill="#9E9E9E"/>
</svg>
