<svg width="113" height="90" viewBox="0 0 113 90" fill="none" xmlns="http://www.w3.org/2000/svg">
<path d="M101 45C101 69.3111 81.5139 89 57.5 89C33.4861 89 14 69.3111 14 45C14 20.6889 33.4861 1 57.5 1C81.5139 1 101 20.6889 101 45Z" stroke="black" stroke-width="2"/>
<path d="M66 47.5983C66 51.4637 62.4183 53.6641 58 53.6641C53.5817 53.6641 50 51.4637 50 47.5983C50 43.7329 53.0484 44.7987 57.4667 44.7987C61.8849 44.7987 66 43.7329 66 47.5983Z" fill="black"/>
<path d="M58 53.6641V57.6641" stroke="black" stroke-width="2" stroke-linecap="round"/>
<path d="M46.4996 54.1641C45.6663 54.8307 44.7996 56.3641 47.9996 57.1641C51.1996 57.9641 55.9999 58.1641 58 58.1641" stroke="black" stroke-width="2" stroke-linecap="round"/>
<path d="M69.2279 54.1641C70.0612 54.8307 70.9279 56.3641 67.7279 57.1641C64.5279 57.9641 59.7277 58.1641 57.7275 58.1641" stroke="black" stroke-width="2" stroke-linecap="round"/>
<path d="M53.0004 58.1641C52.3337 60.4974 52.4004 65.1641 58.0004 65.1641C63.6004 65.1641 64.0001 60.4974 63.5 58.1641M58.0004 58.1641V61.6641" stroke="black" stroke-width="2" stroke-linecap="round"/>
<circle cx="45" cy="41.6641" r="3" fill="black"/>
<circle cx="70" cy="41.6641" r="3" fill="black"/>
<path d="M32 9.40535C28.3068 5.71273 14.0178 8.57947 6.76562 26.6894C-0.486517 44.7993 0.610258 55.4276 2.06516 58.4781C4.63915 62.8129 11.3305 71.8119 21 69.5" stroke="black" stroke-width="2" stroke-linecap="round"/>
<path d="M82 8.00027C85.3637 4.19166 100.743 9.6387 107.153 28.4865C113.564 47.3344 111.818 55.0151 110.481 58.172C108.123 62.6547 102.715 72.4644 94 70" stroke="black" stroke-width="2" stroke-linecap="round"/>
<path d="M57.7275 44.6636C52.3942 44.3303 38.3275 45.7635 36.7275 54.1635" stroke="black" stroke-linecap="round"/>
<path d="M57.7275 44.6636C63.0609 44.3303 78.1275 45.7636 79.7275 54.1636" stroke="black" stroke-linecap="round"/>
</svg>
