<svg width="104" height="93" viewBox="0 0 104 93" fill="none" xmlns="http://www.w3.org/2000/svg">
<path d="M60 48.0983C60 51.9637 56.4183 54.1641 52 54.1641C47.5817 54.1641 44 51.9637 44 48.0983C44 44.2329 47.0484 45.2987 51.4667 45.2987C55.8849 45.2987 60 44.2329 60 48.0983Z" fill="black"/>
<path d="M52 54.1641V58.1641" stroke="black" stroke-width="2" stroke-linecap="round"/>
<path d="M40.4987 54.6641C39.6653 55.3307 38.7987 56.8641 41.9987 57.6641C45.1987 58.4641 49.9989 58.6641 51.999 58.6641" stroke="black" stroke-width="2" stroke-linecap="round"/>
<path d="M63.2279 54.6641C64.0612 55.3307 64.9279 56.8641 61.7279 57.6641C58.5279 58.4641 53.7277 58.6641 51.7275 58.6641" stroke="black" stroke-width="2" stroke-linecap="round"/>
<path d="M47.0004 58.6641C46.3337 60.9974 46.4004 65.6641 52.0004 65.6641C57.6004 65.6641 58.0001 60.9974 57.5 58.6641M52.0004 58.6641V62.1641" stroke="black" stroke-width="2" stroke-linecap="round"/>
<circle cx="39" cy="45.1641" r="3" fill="black"/>
<circle cx="64" cy="45.1641" r="3" fill="black"/>
<path d="M1.08486 91.0547C0.418197 62.7214 3.38486 5.05471 20.5849 1.05471C23.9182 0.721373 31.4848 1.75471 35.0848 8.55471C41.9182 7.22138 57.7848 5.35472 66.5848 8.55471C69.0848 6.05471 75.7848 1.05471 82.5848 1.05471C91.0848 1.05471 97.0848 23.5547 99.0848 36.0547C100.685 46.0547 101.752 76.888 102.085 91.0547" stroke="black" stroke-width="2" stroke-linecap="round"/>
</svg>
